<svg width="20" height="20" viewBox="0 0 20 20" fill="none" xmlns="http://www.w3.org/2000/svg">
<path d="M5.83325 7.5L9.99992 10.4167L14.1666 7.5" stroke="#252B5C" stroke-width="1.6" stroke-linecap="round" stroke-linejoin="round"/>
<path d="M1.66663 14.1667V5.83333C1.66663 5.3913 1.84222 4.96738 2.15478 4.65482C2.46734 4.34226 2.89127 4.16666 3.33329 4.16666H16.6666C17.1087 4.16666 17.5326 4.34226 17.8451 4.65482C18.1577 4.96738 18.3333 5.3913 18.3333 5.83333V14.1667C18.3333 14.6087 18.1577 15.0326 17.8451 15.3452C17.5326 15.6577 17.1087 15.8333 16.6666 15.8333H3.33329C2.89127 15.8333 2.46734 15.6577 2.15478 15.3452C1.84222 15.0326 1.66663 14.6087 1.66663 14.1667Z" stroke="#252B5C" stroke-width="1.6"/>
</svg>
