<svg width="375" height="129" viewBox="0 0 375 129" fill="none" xmlns="http://www.w3.org/2000/svg">
<g clip-path="url(#clip0_2_1909)">
<path d="M0.41687 107.69C0.418222 105.922 1.12303 104.226 2.37637 102.976C3.62972 101.726 5.32905 101.024 7.10087 101.024C8.87269 101.024 10.572 101.726 11.8254 102.976C13.0787 104.226 13.7835 105.922 13.7849 107.69" fill="#F2F2F2"/>
<path d="M7.10081 107.69C7.05291 107.69 7.00696 107.671 6.97309 107.637C6.93921 107.603 6.92017 107.558 6.92017 107.51V103.994C6.92017 103.946 6.9392 103.9 6.97308 103.867C7.00695 103.833 7.0529 103.814 7.10081 103.814C7.14873 103.814 7.19467 103.833 7.22855 103.867C7.26243 103.9 7.28147 103.946 7.28147 103.994V107.51C7.28146 107.558 7.26242 107.603 7.22854 107.637C7.19467 107.671 7.14872 107.69 7.10081 107.69Z" fill="#CCCCCC"/>
<path d="M7.10079 106.482C7.05763 106.482 7.01589 106.467 6.98319 106.438L4.81543 104.582C4.79719 104.566 4.78218 104.547 4.77126 104.526C4.76034 104.505 4.75372 104.482 4.75181 104.458C4.74989 104.434 4.7527 104.411 4.76008 104.388C4.76746 104.365 4.77926 104.344 4.7948 104.326C4.81034 104.308 4.82931 104.293 4.85062 104.283C4.87193 104.272 4.89515 104.266 4.91895 104.264C4.94274 104.262 4.96664 104.265 4.98927 104.273C5.01189 104.28 5.03278 104.292 5.05075 104.308L7.21854 106.165C7.24655 106.189 7.26652 106.221 7.27577 106.257C7.28502 106.292 7.2831 106.33 7.27027 106.364C7.25745 106.399 7.23433 106.429 7.20402 106.45C7.17372 106.471 7.13769 106.482 7.10078 106.482L7.10079 106.482Z" fill="#CCCCCC"/>
<path d="M21.0107 107.69C21.0121 105.922 21.7169 104.226 22.9702 102.976C24.2236 101.726 25.9229 101.024 27.6947 101.024C29.4666 101.024 31.1659 101.726 32.4192 102.976C33.6726 104.226 34.3774 105.922 34.3787 107.69" fill="#F2F2F2"/>
<path d="M27.6948 107.69C27.6469 107.69 27.6009 107.671 27.5671 107.637C27.5332 107.603 27.5142 107.558 27.5142 107.51V103.994C27.5142 103.946 27.5332 103.9 27.5671 103.867C27.6009 103.833 27.6469 103.814 27.6948 103.814C27.7427 103.814 27.7887 103.833 27.8225 103.867C27.8564 103.9 27.8755 103.946 27.8755 103.994V107.51C27.8754 107.558 27.8564 107.603 27.8225 107.637C27.7887 107.671 27.7427 107.69 27.6948 107.69Z" fill="#CCCCCC"/>
<path d="M27.6947 106.482C27.6515 106.482 27.6098 106.467 27.5771 106.438L25.4093 104.582C25.391 104.566 25.376 104.547 25.3651 104.526C25.3541 104.505 25.3475 104.482 25.3456 104.458C25.3436 104.434 25.3464 104.411 25.3538 104.388C25.3612 104.365 25.373 104.344 25.3886 104.326C25.4041 104.308 25.4231 104.293 25.4444 104.283C25.4657 104.272 25.489 104.265 25.5128 104.264C25.5366 104.262 25.5605 104.265 25.5831 104.273C25.6058 104.28 25.6267 104.292 25.6446 104.308L27.8124 106.165C27.8404 106.189 27.8604 106.221 27.8697 106.257C27.8789 106.292 27.877 106.33 27.8642 106.364C27.8513 106.399 27.8282 106.429 27.7979 106.45C27.7676 106.471 27.7316 106.482 27.6947 106.482L27.6947 106.482Z" fill="#CCCCCC"/>
<path d="M31.3637 122.005C37.8153 122.005 43.0453 120.787 43.0453 119.284C43.0453 117.782 37.8153 116.564 31.3637 116.564C24.9121 116.564 19.682 117.782 19.682 119.284C19.682 120.787 24.9121 122.005 31.3637 122.005Z" fill="#F2F2F2"/>
<path d="M25.4004 7.61514C28.4641 -1.93275 35.9451 -9.33747 44.8169 -13.7416C55.3433 -18.967 67.4392 -19.5586 78.8687 -17.5249C91.2068 -15.3295 102.738 -10.2684 113.9 -4.74526C124.849 0.672131 135.62 6.3925 147.006 10.8694C169.738 19.7944 193.831 24.7751 218.244 25.5964C240.217 26.328 263.711 23.9252 282.526 11.599C299.765 0.30497 310.735 -18.327 316.448 -37.7488C317.18 -40.2353 317.83 -42.7431 318.399 -45.2723C318.565 -46.0029 317.439 -46.3148 317.273 -45.5822C312.664 -25.3009 302.836 -5.25606 286.044 7.67221C267.883 21.6549 244.047 24.8874 221.742 24.5175C197.062 24.0874 172.644 19.3846 149.576 10.6187C137.897 6.18129 126.876 0.419189 115.715 -5.14368C104.799 -10.5844 93.5758 -15.6773 81.572 -18.1866C70.611 -20.4779 58.8755 -20.6175 48.3073 -16.5402C39.6053 -13.1829 31.6709 -7.19863 27.0275 0.987591C25.8953 2.99378 24.9726 5.11077 24.274 7.3052C24.0442 8.02143 25.1717 8.32805 25.4004 7.61514Z" fill="#F2F2F2"/>
<path d="M192.177 96.8882C192.28 96.8882 192.379 96.8473 192.452 96.7744C192.525 96.7015 192.566 96.6026 192.566 96.4996C192.566 96.3965 192.525 96.2976 192.452 96.2248C192.379 96.1519 192.28 96.1109 192.177 96.1109H188.478V94.5564H192.177C192.28 94.5564 192.379 94.5155 192.452 94.4426C192.525 94.3698 192.566 94.2709 192.566 94.1678C192.566 94.0648 192.525 93.9659 192.452 93.893C192.379 93.8202 192.28 93.7792 192.177 93.7792H160.636C160.533 93.7792 160.434 93.8202 160.361 93.893C160.288 93.9659 160.247 94.0648 160.247 94.1678C160.247 94.2709 160.288 94.3698 160.361 94.4426C160.434 94.5155 160.533 94.5564 160.636 94.5564H164.335V96.1109H160.636C160.533 96.1109 160.434 96.1519 160.361 96.2248C160.288 96.2976 160.247 96.3965 160.247 96.4996C160.247 96.6026 160.288 96.7015 160.361 96.7744C160.434 96.8473 160.533 96.8882 160.636 96.8882H164.335V98.4427H160.636C160.533 98.4427 160.434 98.4836 160.361 98.5565C160.288 98.6294 160.247 98.7282 160.247 98.8313C160.247 98.9344 160.288 99.0332 160.361 99.1061C160.434 99.179 160.533 99.2199 160.636 99.2199H164.335V100.774H161.026C160.819 100.774 160.621 100.856 160.475 101.002C160.329 101.148 160.247 101.346 160.247 101.552C160.247 101.758 160.329 101.955 160.475 102.101C160.621 102.247 160.819 102.329 161.026 102.329H164.176C164.153 102.391 164.141 102.457 164.141 102.523V107.964C164.141 108.119 164.202 108.267 164.312 108.376C164.421 108.485 164.57 108.547 164.725 108.547C164.88 108.547 165.028 108.485 165.138 108.376C165.247 108.267 165.309 108.119 165.309 107.964V102.523C165.308 102.457 165.296 102.391 165.273 102.329H187.54C187.517 102.391 187.505 102.457 187.504 102.523V107.964C187.504 108.119 187.566 108.267 187.675 108.376C187.785 108.485 187.933 108.547 188.088 108.547C188.243 108.547 188.392 108.485 188.501 108.376C188.611 108.267 188.672 108.119 188.672 107.964V102.523C188.672 102.457 188.659 102.391 188.637 102.329H191.787C191.994 102.329 192.192 102.247 192.338 102.101C192.484 101.955 192.566 101.758 192.566 101.552C192.566 101.346 192.484 101.148 192.338 101.002C192.192 100.856 191.994 100.774 191.787 100.774H188.478V99.2199H192.177C192.28 99.2199 192.379 99.179 192.452 99.1061C192.525 99.0332 192.566 98.9344 192.566 98.8313C192.566 98.7282 192.525 98.6294 192.452 98.5565C192.379 98.4836 192.28 98.4427 192.177 98.4427H188.478V96.8882H192.177ZM165.114 94.5564H187.699V96.1109H165.114V94.5564ZM187.699 100.774H165.114V99.2199H187.699V100.774ZM187.699 98.4427H165.114V96.8882H187.699V98.4427Z" fill="#3F3D56"/>
<path d="M73.4177 80.5771C73.4177 73.7135 67.839 57.4267 60.9573 57.4267C54.0756 57.4267 48.4968 73.7135 48.4968 80.5771C48.4968 83.8753 49.8096 87.0384 52.1464 89.3706C54.4832 91.7028 57.6526 93.013 60.9573 93.013C64.262 93.013 67.4314 91.7028 69.7682 89.3706C72.1049 87.0384 73.4177 83.8753 73.4177 80.5771H73.4177Z" fill="#E6E6E6"/>
<path d="M70.3026 80.5771C70.3026 73.7135 64.7239 57.4267 57.8422 57.4267C50.9605 57.4267 45.3817 73.7135 45.3817 80.5771C45.3817 83.8753 46.6945 87.0384 49.0313 89.3706C51.3681 91.7028 54.5375 93.013 57.8422 93.013C61.1469 93.013 64.3163 91.7028 66.6531 89.3706C68.9898 87.0384 70.3026 83.8753 70.3026 80.5771H70.3026Z" fill="#F2F2F2"/>
<path d="M58.2316 108.383C58.1283 108.383 58.0292 108.342 57.9562 108.269C57.8832 108.196 57.8422 108.098 57.8422 107.995V73.3526C57.8422 73.2495 57.8832 73.1506 57.9562 73.0778C58.0292 73.0049 58.1283 72.9639 58.2316 72.9639C58.3348 72.9639 58.4339 73.0049 58.5069 73.0778C58.5799 73.1506 58.6209 73.2495 58.6209 73.3526V107.995C58.6209 108.098 58.5799 108.196 58.5069 108.269C58.4339 108.342 58.3348 108.383 58.2316 108.383Z" fill="#CCCCCC"/>
<path d="M58.2316 79.0316C58.1546 79.0316 58.0793 79.0088 58.0153 78.9661C57.9513 78.9234 57.9014 78.8627 57.8719 78.7917C57.8425 78.7207 57.8347 78.6425 57.8498 78.5672C57.8648 78.4918 57.9019 78.4226 57.9563 78.3682L63.0486 73.2858C63.1216 73.2129 63.2206 73.1719 63.3239 73.1719C63.4272 73.1719 63.5262 73.2129 63.5992 73.2858C63.6722 73.3586 63.7132 73.4575 63.7132 73.5605C63.7132 73.6636 63.6722 73.7624 63.5992 73.8353L58.5069 78.9177C58.4708 78.9539 58.4279 78.9826 58.3806 79.0021C58.3334 79.0216 58.2827 79.0317 58.2316 79.0316Z" fill="#CCCCCC"/>
<path d="M201.527 108.383C201.423 108.383 201.324 108.342 201.251 108.269C201.178 108.196 201.137 108.098 201.137 107.995V73.3526C201.137 73.2495 201.178 73.1506 201.251 73.0778C201.324 73.0049 201.423 72.9639 201.527 72.9639C201.63 72.9639 201.729 73.0049 201.802 73.0778C201.875 73.1506 201.916 73.2495 201.916 73.3526V107.995C201.916 108.098 201.875 108.196 201.802 108.269C201.729 108.342 201.63 108.383 201.527 108.383Z" fill="#3F3D56"/>
<path d="M243.191 80.5771C243.191 73.7135 237.613 57.4267 230.731 57.4267C223.849 57.4267 218.27 73.7135 218.27 80.5771C218.27 83.8753 219.583 87.0384 221.92 89.3706C224.257 91.7028 227.426 93.013 230.731 93.013C234.036 93.013 237.205 91.7028 239.542 89.3706C241.879 87.0384 243.191 83.8753 243.191 80.5771H243.191Z" fill="#E6E6E6"/>
<path d="M240.076 80.5771C240.076 73.7135 234.497 57.4267 227.616 57.4267C220.734 57.4267 215.155 73.7135 215.155 80.5771C215.155 83.8753 216.468 87.0384 218.805 89.3706C221.142 91.7028 224.311 93.013 227.616 93.013C230.92 93.013 234.09 91.7028 236.427 89.3706C238.763 87.0384 240.076 83.8753 240.076 80.5771H240.076Z" fill="#F2F2F2"/>
<path d="M228.005 108.383C227.902 108.383 227.803 108.342 227.73 108.269C227.657 108.196 227.616 108.098 227.616 107.995V73.3526C227.616 73.2495 227.657 73.1506 227.73 73.0778C227.803 73.0049 227.902 72.9639 228.005 72.9639C228.108 72.9639 228.207 73.0049 228.28 73.0778C228.353 73.1506 228.395 73.2495 228.395 73.3526V107.995C228.395 108.098 228.353 108.196 228.28 108.269C228.207 108.342 228.108 108.383 228.005 108.383Z" fill="#CCCCCC"/>
<path d="M228.005 79.0316C227.928 79.0316 227.853 79.0088 227.789 78.9661C227.725 78.9234 227.675 78.8627 227.645 78.7917C227.616 78.7207 227.608 78.6425 227.623 78.5672C227.638 78.4918 227.675 78.4226 227.73 78.3682L232.822 73.2858C232.895 73.2129 232.994 73.1719 233.097 73.1719C233.201 73.1719 233.3 73.2129 233.373 73.2858C233.446 73.3586 233.487 73.4575 233.487 73.5605C233.487 73.6636 233.446 73.7624 233.373 73.8353L228.28 78.9177C228.244 78.9539 228.201 78.9826 228.154 79.0021C228.107 79.0216 228.056 79.0317 228.005 79.0316Z" fill="#CCCCCC"/>
<path d="M124.038 108.209H92.1084C91.2309 108.208 90.3896 107.859 89.7691 107.24C89.1486 106.621 88.7996 105.781 88.7986 104.905V-23.7285C88.7996 -24.6043 89.1486 -25.4439 89.7691 -26.0632C90.3896 -26.6824 91.2309 -27.0308 92.1084 -27.0318H124.038C124.916 -27.0308 125.757 -26.6825 126.378 -26.0632C126.998 -25.4439 127.347 -24.6043 127.348 -23.7285V104.905C127.347 105.781 126.998 106.621 126.378 107.24C125.757 107.859 124.916 108.208 124.038 108.209Z" fill="#E6E6E6"/>
<path d="M104.958 108.209H73.0283C72.1508 108.208 71.3095 107.859 70.689 107.24C70.0685 106.621 69.7195 105.781 69.7185 104.905V-23.7285C69.7195 -24.6043 70.0685 -25.4439 70.689 -26.0632C71.3095 -26.6824 72.1508 -27.0308 73.0283 -27.0318H104.958C105.836 -27.0308 106.677 -26.6824 107.297 -26.0632C107.918 -25.4439 108.267 -24.6043 108.268 -23.7285V104.905C108.267 105.781 107.918 106.621 107.297 107.24C106.677 107.859 105.836 108.208 104.958 108.209Z" fill="#F2F2F2"/>
<path d="M85.4888 2.11489H78.0904C77.8323 2.1146 77.5849 2.01215 77.4024 1.83001C77.2199 1.64787 77.1172 1.40092 77.1169 1.14334V-10.1267C77.1172 -10.3843 77.2199 -10.6312 77.4024 -10.8134C77.5849 -10.9955 77.8323 -11.098 78.0904 -11.0983H85.4888C85.7469 -11.098 85.9943 -10.9955 86.1768 -10.8134C86.3593 -10.6312 86.462 -10.3843 86.4623 -10.1267V1.14334C86.462 1.40092 86.3593 1.64787 86.1768 1.83001C85.9943 2.01215 85.7469 2.1146 85.4888 2.11489Z" fill="white"/>
<path d="M99.8962 2.11489H92.4978C92.2397 2.1146 91.9922 2.01215 91.8097 1.83001C91.6272 1.64787 91.5246 1.40092 91.5243 1.14334V-10.1267C91.5246 -10.3843 91.6272 -10.6312 91.8097 -10.8134C91.9922 -10.9955 92.2397 -11.098 92.4978 -11.0983H99.8962C100.154 -11.098 100.402 -10.9955 100.584 -10.8134C100.767 -10.6312 100.869 -10.3843 100.87 -10.1267V1.14334C100.869 1.40092 100.767 1.64787 100.584 1.83001C100.402 2.01215 100.154 2.1146 99.8962 2.11489Z" fill="white"/>
<path d="M85.4888 22.7119H78.0904C77.8323 22.7116 77.5849 22.6091 77.4024 22.427C77.2199 22.2448 77.1172 21.9979 77.1169 21.7403V10.4703C77.1172 10.2127 77.2199 9.96574 77.4024 9.7836C77.5849 9.60146 77.8323 9.49901 78.0904 9.49872H85.4888C85.7469 9.49901 85.9943 9.60146 86.1768 9.7836C86.3593 9.96574 86.462 10.2127 86.4623 10.4703V21.7403C86.462 21.9979 86.3593 22.2448 86.1768 22.427C85.9943 22.6091 85.7469 22.7116 85.4888 22.7119Z" fill="white"/>
<path d="M99.8962 22.7119H92.4978C92.2397 22.7116 91.9922 22.6091 91.8097 22.427C91.6272 22.2448 91.5246 21.9979 91.5243 21.7403V10.4703C91.5246 10.2127 91.6272 9.96574 91.8097 9.7836C91.9922 9.60146 92.2397 9.49901 92.4978 9.49872H99.8962C100.154 9.49901 100.402 9.60146 100.584 9.7836C100.767 9.96574 100.869 10.2127 100.87 10.4703V21.7403C100.869 21.9979 100.767 22.2448 100.584 22.427C100.402 22.6091 100.154 22.7116 99.8962 22.7119Z" fill="white"/>
<path d="M85.4888 43.3088H78.0904C77.8323 43.3085 77.5849 43.2061 77.4024 43.0239C77.2199 42.8418 77.1172 42.5949 77.1169 42.3373V31.0672C77.1172 30.8096 77.2199 30.5627 77.4024 30.3806C77.5849 30.1984 77.8323 30.096 78.0904 30.0957H85.4888C85.7469 30.096 85.9943 30.1984 86.1768 30.3806C86.3593 30.5627 86.462 30.8096 86.4623 31.0672V42.3373C86.462 42.5949 86.3593 42.8418 86.1768 43.0239C85.9943 43.2061 85.7469 43.3085 85.4888 43.3088Z" fill="white"/>
<path d="M99.8962 43.3088H92.4978C92.2397 43.3085 91.9922 43.2061 91.8097 43.0239C91.6272 42.8418 91.5246 42.5949 91.5243 42.3373V31.0672C91.5246 30.8096 91.6272 30.5627 91.8097 30.3806C91.9922 30.1984 92.2397 30.096 92.4978 30.0957H99.8962C100.154 30.096 100.402 30.1984 100.584 30.3806C100.767 30.5627 100.869 30.8096 100.87 31.0672V42.3373C100.869 42.5949 100.767 42.8418 100.584 43.0239C100.402 43.2061 100.154 43.3085 99.8962 43.3088Z" fill="white"/>
<path d="M85.4888 63.9058H78.0904C77.8323 63.9055 77.5849 63.803 77.4024 63.6209C77.2199 63.4388 77.1172 63.1918 77.1169 62.9342V51.6642C77.1172 51.4066 77.2199 51.1597 77.4024 50.9775C77.5849 50.7954 77.8323 50.693 78.0904 50.6927H85.4888C85.7469 50.693 85.9943 50.7954 86.1768 50.9775C86.3593 51.1597 86.462 51.4066 86.4623 51.6642V62.9342C86.462 63.1918 86.3593 63.4388 86.1768 63.6209C85.9943 63.803 85.7469 63.9055 85.4888 63.9058Z" fill="white"/>
<path d="M99.8962 63.9058H92.4978C92.2397 63.9055 91.9922 63.803 91.8097 63.6209C91.6272 63.4388 91.5246 63.1918 91.5243 62.9342V51.6642C91.5246 51.4066 91.6272 51.1597 91.8097 50.9775C91.9922 50.7954 92.2397 50.693 92.4978 50.6927H99.8962C100.154 50.693 100.402 50.7954 100.584 50.9775C100.767 51.1597 100.869 51.4066 100.87 51.6642V62.9342C100.869 63.1918 100.767 63.4388 100.584 63.6209C100.402 63.803 100.154 63.9055 99.8962 63.9058Z" fill="white"/>
<path d="M85.4888 84.5028H78.0904C77.8323 84.5025 77.5849 84.4 77.4024 84.2179C77.2199 84.0357 77.1172 83.7888 77.1169 83.5312V72.2612C77.1172 72.0036 77.2199 71.7566 77.4024 71.5745C77.5849 71.3924 77.8323 71.2899 78.0904 71.2896H85.4888C85.7469 71.2899 85.9943 71.3924 86.1768 71.5745C86.3593 71.7566 86.462 72.0036 86.4623 72.2612V83.5312C86.462 83.7888 86.3593 84.0357 86.1768 84.2179C85.9943 84.4 85.7469 84.5025 85.4888 84.5028Z" fill="white"/>
<path d="M99.8962 84.5028H92.4978C92.2397 84.5025 91.9922 84.4 91.8097 84.2179C91.6272 84.0357 91.5246 83.7888 91.5243 83.5312V72.2612C91.5246 72.0036 91.6272 71.7566 91.8097 71.5745C91.9922 71.3924 92.2397 71.2899 92.4978 71.2896H99.8962C100.154 71.2899 100.402 71.3924 100.584 71.5745C100.767 71.7566 100.869 72.0036 100.87 72.2612V83.5312C100.869 83.7888 100.767 84.0357 100.584 84.2179C100.402 84.4 100.154 84.5025 99.8962 84.5028Z" fill="white"/>
<path d="M260.325 42.143H254.094C253.63 42.1424 253.184 41.958 252.856 41.6302C252.527 41.3023 252.343 40.8578 252.342 40.3942V32.2331C252.343 31.7695 252.527 31.325 252.856 30.9971C253.184 30.6693 253.63 30.4848 254.094 30.4843H260.325C260.789 30.4848 261.234 30.6692 261.563 30.9971C261.891 31.3249 262.076 31.7695 262.077 32.2331V40.3942C262.076 40.8578 261.891 41.3023 261.563 41.6302C261.234 41.958 260.789 42.1424 260.325 42.143Z" fill="#E6E6E6"/>
<path d="M312.892 108.597H280.962C280.085 108.596 279.243 108.248 278.623 107.629C278.002 107.009 277.653 106.17 277.652 105.294V43.5031C277.653 42.6274 278.002 41.7877 278.623 41.1685C279.243 40.5492 280.085 40.2008 280.962 40.1999H312.892C313.769 40.2008 314.611 40.5492 315.231 41.1685C315.852 41.7877 316.201 42.6274 316.202 43.5031V105.294C316.201 106.17 315.852 107.009 315.231 107.629C314.611 108.248 313.769 108.596 312.892 108.597Z" fill="#E6E6E6"/>
<path d="M293.812 108.597H238.519C237.641 108.596 236.8 108.248 236.179 107.629C235.559 107.009 235.21 106.17 235.209 105.294V43.5031C235.21 42.6274 235.559 41.7877 236.179 41.1685C236.8 40.5492 237.641 40.2008 238.519 40.1999H293.812C294.689 40.2008 295.531 40.5492 296.151 41.1685C296.772 41.7877 297.121 42.6274 297.122 43.5031V105.294C297.121 106.17 296.772 107.009 296.151 107.629C295.531 108.248 294.689 108.596 293.812 108.597Z" fill="#F2F2F2"/>
<path d="M254.484 42.143H248.253C247.789 42.1424 247.343 41.958 247.015 41.6302C246.686 41.3023 246.502 40.8578 246.501 40.3942V32.2331C246.502 31.7695 246.686 31.325 247.015 30.9971C247.343 30.6693 247.789 30.4848 248.253 30.4843H254.484C254.948 30.4848 255.394 30.6692 255.722 30.9971C256.051 31.3249 256.235 31.7695 256.236 32.2331V40.3942C256.235 40.8578 256.051 41.3023 255.722 41.6302C255.394 41.958 254.948 42.1424 254.484 42.143Z" fill="#F2F2F2"/>
<path d="M262.661 70.7067H255.262C255.004 70.7064 254.757 70.6039 254.574 70.4218C254.392 70.2396 254.289 69.9927 254.289 69.7351V58.4651C254.289 58.2075 254.392 57.9606 254.574 57.7784C254.757 57.5963 255.004 57.4938 255.262 57.4935H262.661C262.919 57.4938 263.166 57.5963 263.349 57.7784C263.531 57.9606 263.634 58.2075 263.634 58.4651V69.7351C263.634 69.9927 263.531 70.2396 263.349 70.4218C263.166 70.6039 262.919 70.7064 262.661 70.7067Z" fill="white"/>
<path d="M277.068 70.7067H269.67C269.412 70.7064 269.164 70.6039 268.982 70.4218C268.799 70.2396 268.697 69.9927 268.696 69.7351V58.4651C268.697 58.2075 268.799 57.9606 268.982 57.7784C269.164 57.5963 269.412 57.4938 269.67 57.4935H277.068C277.326 57.4938 277.574 57.5963 277.756 57.7784C277.939 57.9606 278.041 58.2075 278.042 58.4651V69.7351C278.041 69.9927 277.939 70.2396 277.756 70.4218C277.574 70.6039 277.326 70.7064 277.068 70.7067Z" fill="white"/>
<path d="M262.661 91.3037H255.262C255.004 91.3034 254.757 91.2009 254.574 91.0188C254.392 90.8366 254.289 90.5897 254.289 90.3321V79.0621C254.289 78.8045 254.392 78.5575 254.574 78.3754C254.757 78.1933 255.004 78.0908 255.262 78.0905H262.661C262.919 78.0908 263.166 78.1933 263.349 78.3754C263.531 78.5575 263.634 78.8045 263.634 79.0621V90.3321C263.634 90.5897 263.531 90.8366 263.349 91.0188C263.166 91.2009 262.919 91.3034 262.661 91.3037Z" fill="white"/>
<path d="M277.068 91.3037H269.67C269.412 91.3034 269.164 91.2009 268.982 91.0188C268.799 90.8366 268.697 90.5897 268.696 90.3321V79.0621C268.697 78.8045 268.799 78.5575 268.982 78.3754C269.164 78.1933 269.412 78.0908 269.67 78.0905H277.068C277.326 78.0908 277.574 78.1933 277.756 78.3754C277.939 78.5575 278.041 78.8045 278.042 79.0621V90.3321C278.041 90.5897 277.939 90.8366 277.756 91.0188C277.574 91.2009 277.326 91.3034 277.068 91.3037Z" fill="white"/>
<path d="M396.611 108.792H-10.6106C-10.7139 108.792 -10.8129 108.751 -10.886 108.678C-10.959 108.605 -11 108.506 -11 108.403C-11 108.3 -10.959 108.201 -10.886 108.128C-10.8129 108.055 -10.7139 108.014 -10.6106 108.014H396.611C396.714 108.014 396.813 108.055 396.886 108.128C396.959 108.201 397 108.3 397 108.403C397 108.506 396.959 108.605 396.886 108.678C396.813 108.751 396.714 108.792 396.611 108.792Z" fill="#E6E6E6"/>
<path d="M130.268 122.393H94.0553C93.952 122.393 93.853 122.352 93.7799 122.28C93.7069 122.207 93.6659 122.108 93.6659 122.005C93.6659 121.902 93.7069 121.803 93.7799 121.73C93.853 121.657 93.952 121.616 94.0553 121.616H130.268C130.372 121.616 130.471 121.657 130.544 121.73C130.617 121.803 130.658 121.902 130.658 122.005C130.658 122.108 130.617 122.207 130.544 122.28C130.471 122.352 130.372 122.393 130.268 122.393Z" fill="#E6E6E6"/>
<path d="M220.217 122.393H184.004C183.901 122.393 183.802 122.352 183.729 122.28C183.656 122.207 183.615 122.108 183.615 122.005C183.615 121.902 183.656 121.803 183.729 121.73C183.802 121.657 183.901 121.616 184.004 121.616H220.217C220.321 121.616 220.42 121.657 220.493 121.73C220.566 121.803 220.607 121.902 220.607 122.005C220.607 122.108 220.566 122.207 220.493 122.28C220.42 122.352 220.321 122.393 220.217 122.393Z" fill="#E6E6E6"/>
<path d="M310.166 122.393H273.953C273.85 122.393 273.751 122.352 273.678 122.28C273.605 122.207 273.564 122.108 273.564 122.005C273.564 121.902 273.605 121.803 273.678 121.73C273.751 121.657 273.85 121.616 273.953 121.616H310.166C310.27 121.616 310.369 121.657 310.442 121.73C310.515 121.803 310.556 121.902 310.556 122.005C310.556 122.108 310.515 122.207 310.442 122.28C310.369 122.352 310.27 122.393 310.166 122.393Z" fill="#E6E6E6"/>
<path d="M150.906 80.5771C150.906 73.7135 145.327 57.4267 138.446 57.4267C131.564 57.4267 125.985 73.7135 125.985 80.5771C125.985 83.8753 127.298 87.0384 129.635 89.3706C131.972 91.7028 135.141 93.013 138.446 93.013C141.75 93.013 144.92 91.7028 147.257 89.3706C149.593 87.0384 150.906 83.8753 150.906 80.5771H150.906Z" fill="#E6E6E6"/>
<path d="M147.791 80.5771C147.791 73.7135 142.212 57.4267 135.331 57.4267C128.449 57.4267 122.87 73.7135 122.87 80.5771C122.87 83.8753 124.183 87.0384 126.52 89.3706C128.856 91.7028 132.026 93.013 135.331 93.013C138.635 93.013 141.805 91.7028 144.141 89.3706C146.478 87.0384 147.791 83.8753 147.791 80.5771Z" fill="#F2F2F2"/>
<path d="M135.72 108.383C135.617 108.383 135.518 108.342 135.445 108.269C135.372 108.196 135.331 108.098 135.331 107.995V73.3526C135.331 73.2495 135.372 73.1506 135.445 73.0778C135.518 73.0049 135.617 72.9639 135.72 72.9639C135.823 72.9639 135.922 73.0049 135.995 73.0778C136.068 73.1506 136.109 73.2495 136.109 73.3526V107.995C136.109 108.098 136.068 108.196 135.995 108.269C135.922 108.342 135.823 108.383 135.72 108.383Z" fill="#CCCCCC"/>
<path d="M135.72 79.0316C135.643 79.0316 135.568 79.0088 135.504 78.9661C135.44 78.9234 135.39 78.8627 135.36 78.7917C135.331 78.7207 135.323 78.6425 135.338 78.5672C135.353 78.4918 135.39 78.4226 135.445 78.3682L140.537 73.2858C140.61 73.2129 140.709 73.1719 140.812 73.1719C140.916 73.1719 141.015 73.2129 141.088 73.2858C141.161 73.3586 141.202 73.4575 141.202 73.5605C141.202 73.6636 141.161 73.7624 141.088 73.8353L135.995 78.9177C135.959 78.9539 135.916 78.9826 135.869 79.0021C135.822 79.0216 135.771 79.0317 135.72 79.0316Z" fill="#CCCCCC"/>
<path d="M349.884 80.5771C349.884 73.7135 344.305 57.4267 337.423 57.4267C330.542 57.4267 324.963 73.7135 324.963 80.5771C324.963 83.8753 326.276 87.0384 328.612 89.3706C330.949 91.7028 334.119 93.013 337.423 93.013C340.728 93.013 343.897 91.7028 346.234 89.3706C348.571 87.0384 349.884 83.8753 349.884 80.5771H349.884Z" fill="#E6E6E6"/>
<path d="M346.769 80.5771C346.769 73.7135 341.19 57.4267 334.308 57.4267C327.427 57.4267 321.848 73.7135 321.848 80.5771C321.848 83.8753 323.161 87.0384 325.497 89.3706C327.834 91.7028 331.004 93.013 334.308 93.013C337.613 93.013 340.782 91.7028 343.119 89.3706C345.456 87.0384 346.769 83.8753 346.769 80.5771H346.769Z" fill="#F2F2F2"/>
<path d="M334.698 108.383C334.594 108.383 334.495 108.342 334.422 108.269C334.349 108.196 334.308 108.098 334.308 107.995V73.3526C334.308 73.2495 334.349 73.1506 334.422 73.0778C334.495 73.0049 334.594 72.9639 334.698 72.9639C334.801 72.9639 334.9 73.0049 334.973 73.0778C335.046 73.1506 335.087 73.2495 335.087 73.3526V107.995C335.087 108.098 335.046 108.196 334.973 108.269C334.9 108.342 334.801 108.383 334.698 108.383Z" fill="#CCCCCC"/>
<path d="M334.698 79.0316C334.621 79.0316 334.545 79.0088 334.481 78.9661C334.417 78.9234 334.367 78.8627 334.338 78.7917C334.309 78.7207 334.301 78.6425 334.316 78.5672C334.331 78.4918 334.368 78.4226 334.422 78.3682L339.515 73.2858C339.588 73.2129 339.687 73.1719 339.79 73.1719C339.893 73.1719 339.992 73.2129 340.065 73.2858C340.138 73.3586 340.179 73.4575 340.179 73.5605C340.179 73.6636 340.138 73.7624 340.065 73.8353L334.973 78.9177C334.937 78.9539 334.894 78.9826 334.847 79.0021C334.799 79.0216 334.749 79.0317 334.698 79.0316Z" fill="#CCCCCC"/>
<path d="M205.81 84.8914H197.243C196.985 84.8911 196.738 84.7887 196.555 84.6066C196.373 84.4244 196.27 84.1774 196.27 83.9198V75.3701C196.27 75.1125 196.373 74.8656 196.555 74.6834C196.738 74.5013 196.985 74.3988 197.243 74.3986H205.81C206.068 74.3988 206.316 74.5013 206.498 74.6834C206.681 74.8656 206.783 75.1125 206.783 75.3701V83.9198C206.783 84.1774 206.681 84.4244 206.498 84.6066C206.316 84.7887 206.068 84.8911 205.81 84.8914Z" fill="#3F3D56"/>
<path d="M288.97 89.0548C289.064 89.0794 289.151 89.1241 289.225 89.1858C289.3 89.2475 289.36 89.3248 289.401 89.4122C289.442 89.4995 289.464 89.5949 289.464 89.6914C289.464 89.788 289.443 89.8835 289.403 89.9711L291.096 91.6007L289.903 91.8675L288.478 90.2792C288.335 90.2013 288.226 90.0738 288.171 89.9207C288.116 89.7677 288.119 89.5999 288.179 89.4489C288.24 89.298 288.354 89.1745 288.5 89.1019C288.645 89.0293 288.813 89.0125 288.97 89.0548H288.97Z" fill="#FFB8B8"/>
<path d="M291.351 93.3416L289.262 91.386C289.234 91.359 289.21 91.3265 289.194 91.2905C289.178 91.2544 289.17 91.2155 289.169 91.1761C289.168 91.1366 289.175 91.0974 289.19 91.0608C289.205 91.0241 289.226 90.9908 289.254 90.9627L289.681 90.5316C289.731 90.4805 289.799 90.4496 289.871 90.4446C289.943 90.4396 290.014 90.4609 290.071 90.5045L291.822 91.8395L292.914 89.1963C292.957 89.092 293.021 88.9977 293.102 88.9191C293.183 88.8405 293.279 88.7793 293.385 88.7394C293.491 88.6994 293.604 88.6815 293.716 88.6868C293.829 88.6921 293.94 88.7204 294.041 88.7701C294.201 88.8473 294.332 88.9743 294.414 89.1319C294.495 89.2896 294.523 89.4693 294.494 89.6443C294.296 90.8465 293.095 92.436 292.397 93.2764C292.302 93.3909 292.173 93.473 292.029 93.5116C291.885 93.5502 291.733 93.5433 291.593 93.4918C291.503 93.4583 291.421 93.4073 291.351 93.3416Z" fill="#6C63FF"/>
<path d="M290.179 91.4445L288.641 89.2185C288.621 89.1898 288.614 89.1545 288.62 89.1202C288.627 89.086 288.646 89.0556 288.675 89.0358L288.737 88.9933C288.751 88.9835 288.767 88.9766 288.784 88.973C288.801 88.9694 288.818 88.9691 288.835 88.9723C288.852 88.9754 288.868 88.9818 288.883 88.9912C288.897 89.0006 288.91 89.0127 288.92 89.0269L290.457 91.2529C290.467 91.2671 290.474 91.2831 290.478 91.3C290.481 91.3168 290.482 91.3343 290.479 91.3512C290.475 91.3682 290.469 91.3844 290.46 91.3989C290.45 91.4134 290.438 91.4259 290.424 91.4356L290.362 91.4782C290.333 91.4979 290.298 91.5054 290.264 91.4991C290.229 91.4928 290.199 91.4732 290.179 91.4445Z" fill="white"/>
<path d="M289.749 91.461L288.473 89.6137C288.418 89.5347 288.398 89.4375 288.415 89.3433C288.432 89.2491 288.486 89.1656 288.565 89.1111L288.695 89.0216L290.383 91.4639L290.253 91.5534C290.174 91.6077 290.076 91.6285 289.982 91.6112C289.887 91.5939 289.804 91.5399 289.749 91.461Z" fill="#3F3D56"/>
<path d="M289.904 107.406L289.102 107.314L289.208 104.199L290.26 104.321L289.904 107.406Z" fill="#FFB8B8"/>
<path d="M290.018 108.206L287.433 107.908L287.437 107.875C287.452 107.743 287.494 107.616 287.558 107.5C287.623 107.384 287.71 107.282 287.814 107.199C287.918 107.117 288.038 107.055 288.166 107.019C288.293 106.983 288.427 106.972 288.559 106.987H288.559L290.138 107.169L290.018 108.206Z" fill="#2F2E41"/>
<path d="M299.225 106.815L298.454 107.053L297.169 104.198L298.306 103.847L299.225 106.815Z" fill="#FFB8B8"/>
<path d="M299.653 107.5L297.167 108.267L297.157 108.235C297.118 108.108 297.104 107.975 297.116 107.843C297.129 107.711 297.167 107.582 297.229 107.465C297.291 107.348 297.376 107.244 297.478 107.159C297.58 107.074 297.699 107.01 297.826 106.971H297.826L299.344 106.503L299.653 107.5Z" fill="#2F2E41"/>
<path d="M289.008 106.688C288.927 106.663 288.859 106.607 288.818 106.533C288.777 106.458 288.766 106.371 288.789 106.289L289.272 100.737C289.294 100.484 289.374 100.239 289.505 100.021L292.431 95.1765L295.048 95.6458L295.065 95.6528C296.337 96.4304 297.466 100.201 298.559 103.847C298.729 104.414 298.904 105.001 299.076 105.561C299.108 105.641 299.107 105.73 299.074 105.81C299.041 105.889 298.977 105.953 298.898 105.986L298.106 106.319C298.03 106.351 297.946 106.354 297.869 106.327C297.792 106.3 297.728 106.246 297.689 106.174L293.615 98.7295C293.61 98.7202 293.602 98.7122 293.593 98.7063C293.585 98.7004 293.575 98.6968 293.564 98.6956C293.553 98.6943 293.543 98.6956 293.533 98.6994C293.523 98.7032 293.514 98.7094 293.508 98.7175L291.143 101.388L290.274 106.477L290.27 106.488C290.239 106.561 290.182 106.62 290.111 106.654C290.039 106.689 289.958 106.696 289.881 106.675L289.029 106.691L289.024 106.691L289.008 106.688Z" fill="#2F2E41"/>
<path d="M292.289 95.7074L292.272 95.7021L292.267 95.6855C292.255 95.645 291.059 91.6044 292.137 89.0285L292.138 89.0262C292.17 88.9649 292.922 87.5228 293.796 87.3784L293.819 87.3746L294.103 87.9046C294.192 87.994 295.729 89.5871 295.032 92.3254C295.094 92.55 295.943 95.6327 295.482 96.0935C295.313 96.2094 295.109 96.2606 294.906 96.2377C294.016 96.1618 293.138 95.9838 292.289 95.7074Z" fill="#8BC83F"/>
<path d="M293.615 86.8734C294.742 86.8734 295.656 85.9616 295.656 84.8369C295.656 83.7122 294.742 82.8005 293.615 82.8005C292.488 82.8005 291.575 83.7122 291.575 84.8369C291.575 85.9616 292.488 86.8734 293.615 86.8734Z" fill="#2F2E41"/>
<path d="M292.805 86.8637C293.698 86.8637 294.422 86.1413 294.422 85.2502C294.422 84.3591 293.698 83.6368 292.805 83.6368C291.912 83.6368 291.188 84.3591 291.188 85.2502C291.188 86.1413 291.912 86.8637 292.805 86.8637Z" fill="#FFB8B8"/>
<path d="M293.845 86.8175C293.698 86.8697 293.517 86.9157 293.401 86.8075C293.352 86.745 293.324 86.6695 293.319 86.5908C293.315 86.5121 293.334 86.4338 293.375 86.3661C293.459 86.2332 293.526 86.0908 293.577 85.942C293.592 85.8302 293.578 85.7164 293.536 85.6116C293.494 85.5069 293.425 85.4148 293.337 85.3444C293.162 85.2109 292.963 85.1112 292.751 85.0503L291.62 84.6488C291.325 84.5796 291.064 84.4108 290.881 84.1711C290.786 83.9715 290.77 83.7437 290.835 83.5327C290.901 83.3217 291.043 83.1427 291.233 83.031C291.426 82.9342 291.637 82.8818 291.852 82.8775C292.067 82.8733 292.281 82.9174 292.477 83.0065C292.693 83.107 292.914 83.1953 293.14 83.2712C293.593 83.3905 294.108 83.2835 294.506 83.5385C294.674 83.6657 294.808 83.8329 294.894 84.0248C294.981 84.2167 295.018 84.4272 295.002 84.6371C294.968 85.0592 294.855 85.4713 294.669 85.852C294.583 86.0866 294.458 86.3054 294.3 86.4992C294.222 86.5939 294.123 86.6685 294.011 86.7169C293.898 86.7653 293.776 86.7859 293.654 86.7771L293.845 86.8175Z" fill="#2F2E41"/>
<path d="M295.327 85.1654C296.054 85.1654 296.643 84.5772 296.643 83.8516C296.643 83.126 296.054 82.5378 295.327 82.5378C294.6 82.5378 294.01 83.126 294.01 83.8516C294.01 84.5772 294.6 85.1654 295.327 85.1654Z" fill="#2F2E41"/>
<path d="M293.155 85.7566C293.155 85.7328 293.161 85.7094 293.173 85.6889C293.186 85.6684 293.203 85.6517 293.224 85.6405C293.245 85.6293 293.269 85.624 293.293 85.6252C293.317 85.6265 293.34 85.6341 293.36 85.6475C293.38 85.6608 293.395 85.6792 293.406 85.7008C293.416 85.7224 293.42 85.7464 293.417 85.7701C293.415 85.7938 293.406 85.8164 293.391 85.8355C293.377 85.8545 293.358 85.8693 293.336 85.8783V86.1672C293.336 86.1737 293.334 86.1802 293.332 86.1862C293.33 86.1922 293.326 86.1977 293.321 86.2023C293.317 86.2069 293.311 86.2106 293.305 86.2131C293.299 86.2156 293.293 86.2169 293.286 86.2169C293.28 86.2169 293.273 86.2156 293.267 86.2131C293.261 86.2106 293.256 86.2069 293.251 86.2023C293.247 86.1977 293.243 86.1922 293.241 86.1862C293.238 86.1802 293.237 86.1737 293.237 86.1672V85.8783C293.213 85.8685 293.192 85.8517 293.177 85.83C293.163 85.8083 293.155 85.7828 293.155 85.7566Z" fill="white"/>
<path d="M289.05 90.4339C289.146 90.4243 289.244 90.436 289.335 90.4679C289.426 90.4999 289.509 90.5515 289.579 90.619C289.648 90.6866 289.701 90.7684 289.735 90.8588C289.769 90.9492 289.783 91.046 289.776 91.1422L291.932 92.0807L290.907 92.7457L289.017 91.7526C288.855 91.7293 288.708 91.6479 288.603 91.5236C288.498 91.3994 288.442 91.241 288.447 91.0784C288.451 90.9159 288.514 90.7605 288.626 90.6417C288.737 90.5229 288.888 90.449 289.05 90.4339Z" fill="#FFB8B8"/>
<path d="M292.779 93.6236L290.138 92.5172C290.102 92.5019 290.069 92.4795 290.041 92.4513C290.013 92.4231 289.992 92.3896 289.977 92.3529C289.963 92.3162 289.956 92.277 289.957 92.2375C289.958 92.1981 289.967 92.1592 289.983 92.1233L290.232 91.5708C290.262 91.5053 290.314 91.4528 290.38 91.4231C290.445 91.3934 290.52 91.3886 290.589 91.4095L292.695 92.0519L292.796 89.1947C292.8 89.082 292.827 88.9712 292.875 88.8693C292.924 88.7675 292.993 88.6766 293.078 88.6024C293.163 88.5282 293.263 88.4722 293.37 88.4378C293.478 88.4035 293.592 88.3916 293.704 88.4028C293.881 88.4196 294.048 88.4932 294.179 88.6126C294.311 88.7319 294.4 88.8906 294.433 89.0649C294.667 90.2607 294.097 92.168 293.737 93.1985C293.687 93.339 293.595 93.4607 293.474 93.547C293.352 93.6333 293.207 93.6799 293.058 93.6803C292.962 93.6801 292.867 93.6608 292.779 93.6236Z" fill="#8BC83F"/>
<path d="M22.0173 92.9476H17.9731V91.7223C19.2511 90.8346 20.3834 90.9118 21.8729 91.7943L22.0173 92.9476Z" fill="#6C63FF"/>
<path d="M17.0368 114.711H16.1513L16.0189 111.303H17.0368V114.711Z" fill="#FFB8B8"/>
<path d="M17.2625 115.568L14.4077 115.568V115.532C14.4077 115.386 14.4365 115.242 14.4923 115.107C14.5481 114.973 14.63 114.85 14.7332 114.747C14.8363 114.644 14.9588 114.563 15.0937 114.507C15.2285 114.451 15.373 114.423 15.5189 114.423H15.519L17.2626 114.423L17.2625 115.568Z" fill="#2F2E41"/>
<path d="M22.0237 114.711H22.9088L23.0412 111.303H22.0233L22.0237 114.711Z" fill="#FFB8B8"/>
<path d="M21.7977 114.423L23.5413 114.423H23.5414C23.6873 114.423 23.8318 114.451 23.9666 114.507C24.1014 114.563 24.2239 114.644 24.3271 114.747C24.4303 114.85 24.5122 114.973 24.568 115.107C24.6238 115.242 24.6526 115.386 24.6526 115.532V115.568L21.7978 115.568L21.7977 114.423Z" fill="#2F2E41"/>
<path d="M22.0469 114.274C21.973 114.274 21.9014 114.249 21.8438 114.203C21.7861 114.157 21.7459 114.092 21.7296 114.02L19.5351 104.468C19.5303 104.443 19.5171 104.422 19.4977 104.406C19.4784 104.391 19.4542 104.382 19.4294 104.383H19.4289C19.404 104.383 19.3797 104.391 19.3604 104.407C19.3411 104.422 19.328 104.444 19.3234 104.469L17.3082 113.957C17.2925 114.03 17.2524 114.095 17.1946 114.141C17.1368 114.188 17.0647 114.214 16.9903 114.214H16.0303C15.986 114.214 15.9422 114.205 15.9015 114.188C15.8609 114.17 15.8242 114.144 15.7938 114.112C15.7634 114.08 15.74 114.042 15.7248 114.001C15.7097 113.959 15.7033 113.915 15.7059 113.871L16.4209 101.845L16.7086 101.76L16.714 101.76L22.3656 101.809L23.5693 113.822C23.5735 113.865 23.5691 113.908 23.5564 113.949C23.5437 113.99 23.5229 114.028 23.4952 114.061C23.4675 114.095 23.4335 114.122 23.3952 114.141C23.3569 114.161 23.315 114.173 23.272 114.177L22.0729 114.273C22.0642 114.274 22.0555 114.274 22.0469 114.274Z" fill="#2F2E41"/>
<path d="M19.7129 90.7515C20.6926 90.7515 21.4867 89.959 21.4867 88.9813C21.4867 88.0036 20.6926 87.211 19.7129 87.211C18.7333 87.211 17.9392 88.0036 17.9392 88.9813C17.9392 89.959 18.7333 90.7515 19.7129 90.7515Z" fill="#FFB8B8"/>
<path d="M18.6263 103.163C18.3151 103.167 18.0052 103.123 17.7071 103.034C17.4421 102.954 17.1962 102.821 16.9845 102.643C16.7729 102.465 16.6001 102.245 16.4767 101.998C16.4376 101.923 16.4289 101.837 16.4525 101.756C16.6481 101.09 17.5934 97.6261 16.9903 94.8727C16.9051 94.4902 16.8981 94.0945 16.9695 93.7092C17.0409 93.3239 17.1893 92.9569 17.4059 92.6301C17.6174 92.3059 17.8923 92.0275 18.2139 91.8116C18.5356 91.5956 18.8976 91.4465 19.2783 91.3732V91.3732C19.3783 91.3537 19.4789 91.3377 19.5772 91.3256C19.998 91.2739 20.425 91.3157 20.8278 91.4479C21.2305 91.5801 21.5989 91.7996 21.9068 92.0905C22.2238 92.3872 22.4711 92.7501 22.6311 93.1533C22.7911 93.5566 22.8598 93.9901 22.8323 94.4229L22.3688 101.847C22.3656 101.903 22.3479 101.956 22.3176 102.003C22.2872 102.05 22.2452 102.088 22.1956 102.114C21.6617 102.393 20.058 103.163 18.6263 103.163Z" fill="#3F3D56"/>
<path d="M21.7168 87.6782C21.5325 87.2161 21.195 86.831 20.7606 86.5872C20.3262 86.3434 19.8212 86.2558 19.3298 86.3388L19.889 86.7898C19.1942 86.8132 18.4628 86.7635 17.9666 87.2496C18.1246 87.2452 18.3316 87.5824 18.4895 87.578C18.3417 87.5884 18.1994 87.6382 18.0774 87.7221C17.9555 87.8061 17.8583 87.9212 17.796 88.0554C17.6752 88.3271 17.647 88.6308 17.7156 88.9201C17.8946 89.3457 18.1027 89.7584 18.3386 90.1555C18.318 89.4513 19.707 87.7716 20.3853 87.9469C20.0407 88.0745 19.7417 88.3011 19.5259 88.5981C19.9874 88.3657 20.5093 88.2805 21.0209 88.354C21.1377 88.3807 21.2582 88.3875 21.3773 88.3739C21.4503 88.3595 21.5184 88.3267 21.575 88.2785C21.6316 88.2304 21.675 88.1686 21.7008 88.099C21.7267 88.0294 21.7343 87.9543 21.7228 87.8809C21.7113 87.8076 21.6812 87.7384 21.6353 87.6799L21.7168 87.6782Z" fill="#2F2E41"/>
<path d="M18.5041 102.717C18.4593 102.717 18.415 102.708 18.374 102.69L15.0086 101.224C14.9371 101.193 14.8791 101.138 14.8452 101.068C14.8113 100.998 14.8039 100.918 14.8242 100.843L17.0521 92.4439C17.0935 92.2876 17.1658 92.1411 17.2646 92.013C17.3634 91.8849 17.4869 91.7778 17.6277 91.6979C17.7685 91.618 17.9239 91.5669 18.0847 91.5477C18.2456 91.5285 18.4087 91.5415 18.5644 91.5859L19.4552 91.8397L18.8281 102.412C18.8249 102.464 18.8091 102.514 18.7821 102.559C18.7552 102.604 18.7178 102.642 18.6731 102.669C18.6223 102.7 18.5638 102.717 18.5041 102.717Z" fill="#1F4C6B"/>
<path d="M24.7328 100.843L24.5847 100.286L24.3702 99.4761L24.2669 99.0877L24.0525 98.2797L22.5048 92.4437C22.4636 92.2874 22.3914 92.1408 22.2926 92.0127C22.1938 91.8845 22.0703 91.7774 21.9295 91.6975C21.7886 91.6176 21.6332 91.5665 21.4723 91.5474C21.3114 91.5283 21.1483 91.5414 20.9926 91.586L20.1022 91.8397L20.5434 99.2758L20.5889 100.052L20.6178 100.541V100.542L20.664 101.314L20.729 102.412C20.7343 102.494 20.7707 102.572 20.8309 102.628C20.8911 102.685 20.9705 102.717 21.0533 102.717C21.098 102.717 21.1423 102.708 21.1833 102.69L24.5486 101.224C24.6201 101.193 24.6782 101.138 24.712 101.068C24.7459 100.998 24.7532 100.918 24.7328 100.843Z" fill="#1F4C6B"/>
<path d="M24.2669 99.0878L20.5888 100.052L20.5432 99.2759L24.0524 98.2795L24.2669 99.0878Z" fill="#CCCCCC"/>
<path d="M24.5847 100.286L20.6639 101.314L20.6176 100.542V100.541L24.3701 99.476L24.5847 100.286Z" fill="#CCCCCC"/>
<path d="M18.9685 99.443L18.923 100.205L15.3157 99.1325L15.5271 98.335L18.9685 99.443Z" fill="#CCCCCC"/>
<path d="M18.8935 100.706L15.2126 99.5207L15.0007 100.32L18.8487 101.464L18.8935 100.706Z" fill="#CCCCCC"/>
<path d="M15.2764 101.503C15.3862 101.475 15.4883 101.422 15.5756 101.35C15.6629 101.278 15.7333 101.187 15.7818 101.085C15.8303 100.983 15.8557 100.871 15.8563 100.758C15.8569 100.645 15.8326 100.533 15.7851 100.43L17.5156 95.008L16.2885 94.7515L14.702 100.067C14.5342 100.158 14.4057 100.308 14.3409 100.487C14.2761 100.666 14.2794 100.863 14.3502 101.04C14.421 101.217 14.5544 101.362 14.7251 101.447C14.8958 101.533 15.092 101.552 15.2764 101.503V101.503Z" fill="#FFB8B8"/>
<path d="M17.5636 92.3425C17.9159 92.3784 18.1141 92.7738 18.0265 93.2661L17.6061 95.6286C17.5746 95.8057 17.4286 95.9459 17.3072 95.9156L15.8852 95.5609C15.7758 95.5336 15.7355 95.3784 15.7975 95.2232L16.6512 93.0859C16.7089 92.8838 16.8273 92.7042 16.9905 92.5713C17.1536 92.4384 17.3536 92.3585 17.5636 92.3425Z" fill="#234F68"/>
<path d="M19.7063 85.6679C20.3067 85.668 20.8834 85.9012 21.3144 86.3183C21.7454 86.7353 21.9968 87.3034 22.0155 87.9023H22.4506C22.4889 87.9023 22.5257 87.9174 22.5527 87.9445C22.5798 87.9715 22.595 88.0082 22.595 88.0464V88.623C22.595 88.6613 22.5798 88.6979 22.5527 88.7249C22.5257 88.752 22.4889 88.7672 22.4506 88.7672H17.5398C17.5015 88.7672 17.4648 88.752 17.4377 88.7249C17.4106 88.6979 17.3954 88.6613 17.3954 88.623V87.9743C17.3954 87.6715 17.4552 87.3715 17.5713 87.0917C17.6874 86.8119 17.8577 86.5576 18.0722 86.3434C18.2868 86.1293 18.5416 85.9594 18.822 85.8435C19.1024 85.7276 19.4029 85.6679 19.7063 85.6679Z" fill="#1F4C6B"/>
<path d="M19.9825 99.9248H18.9617C18.9289 99.9249 18.8973 99.9128 18.8731 99.8908C18.8488 99.8688 18.8336 99.8386 18.8306 99.8061L18.6262 97.7158H20.318L20.1137 99.8061C20.1106 99.8386 20.0954 99.8688 20.0712 99.8908C20.0469 99.9128 20.0153 99.9249 19.9825 99.9248Z" fill="#E6E6E6"/>
<path d="M20.3153 97.9787H18.6289C18.594 97.9787 18.5605 97.9648 18.5358 97.9402C18.5111 97.9155 18.4972 97.8821 18.4972 97.8472V97.5317C18.4972 97.4968 18.5111 97.4634 18.5358 97.4388C18.5605 97.4141 18.594 97.4002 18.6289 97.4002H20.3153C20.3502 97.4002 20.3837 97.4141 20.4084 97.4388C20.4331 97.4634 20.447 97.4968 20.4471 97.5317V97.8472C20.447 97.8821 20.4331 97.9155 20.4084 97.9402C20.3837 97.9648 20.3502 97.9787 20.3153 97.9787Z" fill="#CCCCCC"/>
<path d="M19.494 98.8037C19.5337 98.8083 19.573 98.816 19.6115 98.8268L22.3302 96.4999L22.1713 95.6461L23.431 95.2383L23.8595 96.7225C23.8941 96.8424 23.8888 96.9702 23.8444 97.0869C23.8 97.2035 23.7189 97.3026 23.6133 97.3694L20.1701 99.5439C20.1725 99.6975 20.1281 99.8482 20.0426 99.976C19.9571 100.104 19.8347 100.203 19.6916 100.259C19.5485 100.316 19.3915 100.328 19.2415 100.293C19.0915 100.258 18.9556 100.179 18.8519 100.066C18.7482 99.9521 18.6816 99.8097 18.6609 99.6574C18.6403 99.5052 18.6665 99.3503 18.7362 99.2133C18.8059 99.0763 18.9158 98.9637 19.0512 98.8906C19.1865 98.8174 19.341 98.7871 19.4941 98.8037H19.494Z" fill="#FFB8B8"/>
<path d="M22.3373 92.5377C22.7137 92.4325 23.0898 92.7184 23.2158 93.2055L23.8205 95.543C23.8658 95.7182 23.7778 95.9044 23.6403 95.9241L22.0293 96.1554C21.9054 96.1732 21.7962 96.0463 21.7916 95.8792L21.7291 93.579C21.7051 93.3633 21.7513 93.1456 21.8608 92.9581C21.9704 92.7706 22.1374 92.6232 22.3373 92.5377Z" fill="#1F4C6B"/>
<path d="M40.6485 98.8613H39.422C39.3826 98.8614 39.3446 98.8469 39.3155 98.8205C39.2863 98.7941 39.2681 98.7578 39.2644 98.7187L39.0189 96.2073H41.0515L40.806 98.7186C40.8023 98.7577 40.7841 98.7941 40.7549 98.8205C40.7258 98.8468 40.6878 98.8614 40.6485 98.8613Z" fill="#E6E6E6"/>
<path d="M41.0483 96.5233H39.0222C38.9802 96.5232 38.94 96.5065 38.9103 96.4769C38.8806 96.4473 38.8639 96.4071 38.8639 96.3653V95.9861C38.8639 95.9442 38.8806 95.9041 38.9103 95.8745C38.94 95.8449 38.9802 95.8282 39.0222 95.8282H41.0483C41.0902 95.8282 41.1305 95.8449 41.1601 95.8745C41.1898 95.9041 41.2065 95.9442 41.2065 95.9861V96.3653C41.2065 96.4071 41.1898 96.4473 41.1601 96.4769C41.1304 96.5065 41.0902 96.5232 41.0483 96.5233Z" fill="#CCCCCC"/>
<path d="M52.6981 113.61C51.8069 112.427 51.1025 111.114 50.6092 109.719C50.5806 109.635 50.5826 109.544 50.6149 109.462C50.6472 109.38 50.7076 109.312 50.7854 109.27L53.8348 107.639C53.8842 107.613 53.9389 107.598 53.9949 107.596C54.0509 107.593 54.1067 107.604 54.1581 107.626C54.2104 107.649 54.2568 107.683 54.2938 107.727C54.3308 107.77 54.3574 107.821 54.3716 107.876C54.7266 109.221 55.3937 110.464 56.3191 111.504C56.3572 111.546 56.3851 111.596 56.4007 111.651C56.4164 111.706 56.4192 111.763 56.4092 111.819C56.3995 111.875 56.3774 111.927 56.3445 111.972C56.3116 112.017 56.2687 112.054 56.2192 112.081L53.1699 113.711C53.0919 113.753 53.0016 113.765 52.9152 113.747C52.8288 113.728 52.7519 113.68 52.6981 113.61Z" fill="#CCCCCC"/>
<path d="M52.9062 113.453C52.9226 113.474 52.9457 113.488 52.9713 113.493C52.997 113.499 53.0238 113.495 53.047 113.482L56.0963 111.852C56.1112 111.844 56.124 111.833 56.1338 111.82C56.1436 111.806 56.1502 111.79 56.153 111.774C56.1562 111.757 56.1553 111.739 56.1504 111.722C56.1455 111.705 56.1367 111.689 56.1248 111.676C55.1721 110.606 54.4853 109.327 54.1199 107.942C54.1157 107.925 54.1075 107.909 54.0961 107.896C54.0847 107.882 54.0703 107.871 54.0541 107.865C54.0389 107.858 54.0222 107.855 54.0055 107.855C53.9888 107.856 53.9725 107.86 53.9578 107.868L50.9085 109.499C50.8854 109.512 50.8674 109.532 50.8575 109.556C50.8477 109.58 50.8467 109.607 50.8547 109.632C51.3392 111.003 52.0311 112.292 52.9062 113.453Z" fill="white"/>
<path d="M54.0351 109.967L52.3743 110.698C52.3111 110.726 52.2395 110.728 52.1752 110.703C52.1108 110.678 52.059 110.629 52.0311 110.566L51.99 110.473C51.9622 110.41 51.9606 110.338 51.9855 110.274C52.0104 110.21 52.0599 110.158 52.123 110.13L53.7838 109.398C53.847 109.371 53.9186 109.369 53.9829 109.394C54.0473 109.419 54.0991 109.468 54.127 109.531L54.1681 109.624C54.1959 109.687 54.1975 109.759 54.1726 109.823C54.1477 109.887 54.0982 109.939 54.0351 109.967Z" fill="#CCCCCC"/>
<path d="M54.6424 111.092L52.9816 111.824C52.9184 111.852 52.8468 111.853 52.7825 111.829C52.7181 111.804 52.6663 111.754 52.6383 111.691L52.5973 111.598C52.5695 111.535 52.5679 111.464 52.5928 111.4C52.6177 111.335 52.6672 111.284 52.7303 111.256L54.3911 110.524C54.4543 110.496 54.5259 110.495 54.5902 110.52C54.6546 110.545 54.7064 110.594 54.7343 110.657L54.7754 110.75C54.8032 110.813 54.8048 110.884 54.7799 110.949C54.755 111.013 54.7055 111.064 54.6424 111.092Z" fill="#CCCCCC"/>
<path d="M50.7473 110.154C50.6327 110.081 50.5356 109.983 50.463 109.868C50.3903 109.753 50.3438 109.623 50.3268 109.488C50.3097 109.354 50.3225 109.217 50.3642 109.087C50.406 108.958 50.4756 108.839 50.5683 108.739L49.8679 98.8192L51.8855 99.0144L51.9409 108.729C52.0983 108.896 52.1891 109.114 52.196 109.343C52.203 109.572 52.1255 109.795 51.9784 109.971C51.8312 110.147 51.6247 110.262 51.3978 110.296C51.1709 110.33 50.9394 110.28 50.7473 110.154Z" fill="#A0616A"/>
<path d="M50.3246 102.152C50.2774 102.118 50.2384 102.074 50.2105 102.023C50.1826 101.972 50.1665 101.916 50.1634 101.858L50.0155 99.1842C50.0009 98.9193 50.0851 98.6584 50.2518 98.4518C50.4185 98.2452 50.656 98.1075 50.9184 98.0652C51.1808 98.023 51.4496 98.0792 51.673 98.223C51.8963 98.3669 52.0584 98.5881 52.128 98.8442L52.7774 101.235C52.8043 101.334 52.7906 101.441 52.7391 101.53C52.6876 101.62 52.6026 101.686 52.5027 101.713L50.6554 102.213C50.5993 102.228 50.5404 102.23 50.4832 102.22C50.4259 102.21 50.3718 102.186 50.3246 102.152Z" fill="#3F3D56"/>
<path d="M46.8858 122.35L45.8224 122.35L45.3162 118.255H46.8862L46.8858 122.35Z" fill="#A0616A"/>
<path d="M44.8249 122.047H47.1139V123.336H43.7708V123.099C43.7707 122.961 43.798 122.824 43.851 122.696C43.904 122.569 43.9816 122.453 44.0795 122.355C44.1774 122.257 44.2936 122.18 44.4215 122.127C44.5494 122.074 44.6864 122.047 44.8249 122.047Z" fill="#2F2E41"/>
<path d="M50.877 122.35L49.8136 122.35L49.3074 118.255H50.8774L50.877 122.35Z" fill="#A0616A"/>
<path d="M48.8161 122.047H51.1051V123.336H47.762V123.099C47.762 122.961 47.7892 122.824 47.8422 122.696C47.8952 122.569 47.9728 122.453 48.0707 122.355C48.1686 122.257 48.2848 122.18 48.4127 122.127C48.5406 122.074 48.6776 122.047 48.8161 122.047Z" fill="#2F2E41"/>
<path d="M46.8357 120.287L45.6647 120.231C45.565 120.227 45.4708 120.184 45.4017 120.112C45.3325 120.04 45.2936 119.945 45.2929 119.845C44.9842 115.089 44.5566 109.99 45.2112 108.02C45.2108 107.964 45.2225 107.908 45.2456 107.857C45.2688 107.806 45.3027 107.76 45.3451 107.724C45.3875 107.687 45.4374 107.659 45.4913 107.644C45.5453 107.628 45.602 107.624 45.6577 107.632L50.3424 108.31C50.435 108.323 50.5198 108.369 50.5812 108.439C50.6426 108.51 50.6765 108.6 50.6768 108.693C51.2749 111.026 51.3019 115.255 51.2793 119.65C51.2797 119.702 51.2699 119.753 51.2504 119.8C51.231 119.848 51.2023 119.891 51.166 119.928C51.1297 119.964 51.0865 119.993 51.0389 120.013C50.9914 120.033 50.9404 120.043 50.8888 120.043H49.6264C49.5333 120.043 49.4431 120.01 49.3723 119.95C49.3015 119.889 49.2548 119.806 49.2407 119.714L48.4618 114.772C48.4504 114.7 48.4132 114.634 48.3571 114.587C48.3009 114.54 48.2296 114.515 48.1562 114.516C48.0829 114.517 48.0126 114.545 47.9582 114.594C47.9038 114.643 47.869 114.71 47.8603 114.783L47.242 119.944C47.2304 120.039 47.1846 120.126 47.1132 120.189C47.0418 120.252 46.9497 120.287 46.8543 120.288C46.8481 120.288 46.842 120.288 46.8357 120.287Z" fill="#2F2E41"/>
<path d="M47.66 108.694C46.9762 108.293 46.2184 108.034 45.4319 107.932C45.3802 107.927 45.3301 107.912 45.2845 107.887C45.239 107.862 45.199 107.828 45.167 107.787C45.1342 107.746 45.1102 107.699 45.0963 107.648C45.0824 107.597 45.079 107.545 45.0862 107.493L46.2087 99.1751C46.2733 98.6885 46.4616 98.2265 46.7557 97.8331C47.0498 97.4397 47.4399 97.1279 47.8888 96.9274C48.3233 96.728 48.8018 96.6429 49.2786 96.6802C49.7554 96.7175 50.2147 96.876 50.6128 97.1405C50.6513 97.166 50.689 97.1921 50.7261 97.2187C51.1845 97.554 51.5333 98.0172 51.7284 98.55C51.9235 99.0827 51.9563 99.6612 51.8225 100.213C51.1341 103.023 50.8977 107.63 50.8572 108.525C50.8541 108.602 50.8283 108.675 50.7833 108.737C50.7382 108.799 50.6759 108.846 50.6041 108.872C50.1805 109.026 49.7336 109.105 49.283 109.107C48.7154 109.11 48.1565 108.968 47.66 108.694Z" fill="#3F3D56"/>
<path d="M48.5991 95.7981C49.776 95.7981 50.7301 94.8459 50.7301 93.6712C50.7301 92.4966 49.776 91.5444 48.5991 91.5444C47.4221 91.5444 46.468 92.4966 46.468 93.6712C46.468 94.8459 47.4221 95.7981 48.5991 95.7981Z" fill="#A0616A"/>
<path d="M50.1071 95.3539C50.018 95.4498 49.9033 95.5183 49.7765 95.5514C49.6498 95.5845 49.5162 95.5807 49.3914 95.5407C49.2667 95.5006 49.156 95.4258 49.0724 95.3251C48.9888 95.2244 48.9357 95.102 48.9194 94.9723C48.9153 94.9274 48.9156 94.8823 48.9203 94.8376C48.9979 94.5916 49.0447 94.337 49.0596 94.0795C49.0516 94.0123 49.0265 93.9483 48.9867 93.8934C48.6699 93.47 47.9263 94.0828 47.6273 93.6995C47.4439 93.4645 47.6595 93.0945 47.5188 92.8318C47.3331 92.4851 46.7831 92.6561 46.4382 92.4663C46.0545 92.255 46.0774 91.6674 46.33 91.31C46.4944 91.0988 46.7035 90.9264 46.9423 90.8051C47.1811 90.6837 47.4438 90.6165 47.7116 90.608C48.2479 90.5954 48.7805 90.6992 49.2727 90.9121C49.854 91.1008 50.3669 91.4557 50.7478 91.9328C50.9448 92.2457 51.0697 92.5983 51.1134 92.9653C51.157 93.3323 51.1184 93.7043 51.0002 94.0545C50.7918 94.5425 50.4882 94.9842 50.1071 95.3539Z" fill="#2F2E41"/>
<path d="M51.7946 97.4217C51.7573 97.2467 51.4372 97.0077 50.979 96.8129C50.2427 96.5152 49.4463 96.3954 48.6547 96.4631C47.8631 96.5308 47.0988 96.7842 46.4239 97.2026C46.3768 97.2051 46.3319 97.223 46.296 97.2535C46.2601 97.284 46.2352 97.3255 46.2252 97.3714L44.6842 104.173L44.4838 105.059L44.3511 105.645L44.1506 106.529L44.0439 107.001C44.0371 107.031 44.0368 107.062 44.0431 107.092C44.0493 107.123 44.062 107.151 44.0802 107.176C44.0985 107.201 44.1219 107.222 44.1488 107.237C44.1758 107.253 44.2057 107.262 44.2366 107.265L50.8905 107.838C50.8966 107.838 50.9035 107.839 50.9096 107.839C50.9645 107.839 51.0173 107.818 51.0572 107.78C51.0971 107.742 51.1213 107.691 51.1248 107.636L51.1881 106.674L51.2558 105.645L51.2853 105.2L51.3521 104.173L51.7955 97.4329V97.4268L51.7946 97.4217Z" fill="#1F4C6B"/>
<path d="M40.8766 97.8498C40.8872 97.8965 40.8942 97.944 40.8974 97.9918L44.6246 100.138L45.5305 99.6173L46.4963 100.879L44.5582 102.258L40.3061 98.9098C40.1326 98.9739 39.9438 98.9837 39.7646 98.938C39.5854 98.8923 39.4244 98.7933 39.3031 98.6541C39.1817 98.5149 39.1056 98.3421 39.085 98.1586C39.0644 97.9752 39.1003 97.7899 39.1878 97.6274C39.2753 97.4648 39.4103 97.3326 39.5749 97.2485C39.7395 97.1643 39.9258 97.1322 40.1092 97.1564C40.2925 97.1805 40.4641 97.2598 40.6012 97.3837C40.7383 97.5075 40.8343 97.6701 40.8766 97.8498V97.8498Z" fill="#A0616A"/>
<path d="M44.7577 99.9553C44.7515 99.8976 44.7584 99.8392 44.7778 99.7844C44.7972 99.7296 44.8287 99.6799 44.8699 99.639L46.7669 97.7453C46.9548 97.5577 47.2057 97.4462 47.4712 97.4322C47.7366 97.4183 47.9978 97.503 48.2044 97.6699C48.4111 97.8368 48.5484 98.0742 48.5901 98.3362C48.6317 98.5982 48.5747 98.8664 48.43 99.0889L47.0791 101.166C47.0226 101.253 46.9341 101.314 46.8328 101.335C46.7316 101.357 46.6259 101.337 46.539 101.281L44.9335 100.241C44.8846 100.21 44.8435 100.168 44.813 100.118C44.7826 100.069 44.7637 100.013 44.7577 99.9553Z" fill="#1F4C6B"/>
<path d="M51.3521 104.173L51.2855 105.2L44.4836 105.059L44.6842 104.173H51.3521Z" fill="#CCCCCC"/>
<path d="M51.2559 105.645L51.1882 106.674L44.1508 106.529L44.3513 105.645H51.2559Z" fill="#CCCCCC"/>
<path d="M48.6408 89.539C47.9195 89.5391 47.2266 89.8193 46.7088 90.3204C46.191 90.8214 45.8889 91.5039 45.8665 92.2234H45.3437C45.2977 92.2234 45.2535 92.2416 45.221 92.2741C45.1885 92.3066 45.1702 92.3507 45.1702 92.3966V93.0893C45.1702 93.1353 45.1885 93.1793 45.221 93.2118C45.2535 93.2443 45.2977 93.2625 45.3437 93.2625H51.2437C51.2897 93.2625 51.3339 93.2443 51.3664 93.2118C51.399 93.1793 51.4172 93.1353 51.4172 93.0893V92.31C51.4172 91.9461 51.3454 91.5858 51.2059 91.2496C51.0664 90.9134 50.8619 90.6079 50.604 90.3506C50.3462 90.0933 50.0401 89.8892 49.7033 89.7499C49.3664 89.6107 49.0054 89.539 48.6408 89.539Z" fill="#1F4C6B"/>
<path d="M64.267 117.73H63.6719C63.6681 117.658 62.8692 115.787 62.8692 115.787L62.3863 114.621L62.067 113.844L61.5841 112.678L61.0312 111.337C61.017 111.277 60.9828 111.223 60.934 111.184C60.8852 111.145 60.8248 111.124 60.7625 111.124C60.7003 111.124 60.6398 111.145 60.591 111.184C60.5423 111.223 60.508 111.277 60.4939 111.337L59.941 112.678L59.458 113.844L59.1388 114.621L58.6559 115.787C58.6559 115.787 57.8569 117.658 57.8531 117.73H57.258C57.1031 117.73 56.9546 117.791 56.845 117.901C56.7355 118.01 56.674 118.158 56.674 118.313C56.674 118.467 56.7355 118.616 56.845 118.725C56.9546 118.834 57.1031 118.896 57.258 118.896H64.267C64.4219 118.896 64.5705 118.834 64.68 118.725C64.7896 118.616 64.8511 118.467 64.8511 118.313C64.8511 118.158 64.7896 118.01 64.68 117.901C64.5705 117.791 64.4219 117.73 64.267 117.73Z" fill="#FF6584"/>
<path d="M63.8777 127.834H63.6471C63.6682 127.784 62.6434 125.168 62.6434 125.168L62.0281 123.672L61.6154 122.669L61.0001 121.173L60.3304 119.553C60.3116 119.476 60.2676 119.408 60.2055 119.359C60.1433 119.311 60.0667 119.284 59.9877 119.284C59.9088 119.284 59.8321 119.311 59.77 119.359C59.7079 119.408 59.6639 119.476 59.645 119.553L58.9754 121.173L58.3601 122.669L57.9433 123.672L57.3283 125.168C57.3283 125.168 56.3073 127.784 56.3284 127.834H56.0899C55.935 127.834 55.7865 127.896 55.6769 128.005C55.5674 128.114 55.5059 128.262 55.5059 128.417C55.5059 128.572 55.5674 128.72 55.6769 128.829C55.7865 128.939 55.935 129 56.0899 129H63.8777C64.0326 129 64.1812 128.939 64.2907 128.829C64.4003 128.72 64.4618 128.572 64.4618 128.417C64.4618 128.262 64.4003 128.114 64.2907 128.005C64.1812 127.896 64.0326 127.834 63.8777 127.834Z" fill="#FF6584"/>
<path d="M62.0669 113.844H59.458L59.9408 112.678H61.5841L62.0669 113.844Z" fill="#F2F2F2"/>
<path d="M62.8691 115.787H58.6559L59.1387 114.621H62.3862L62.8691 115.787Z" fill="#F2F2F2"/>
<path d="M61.6152 122.669H58.3599L58.9751 121.173H60.9999L61.6152 122.669Z" fill="#F2F2F2"/>
<path d="M62.6432 125.168H57.328L57.9432 123.672H62.0279L62.6432 125.168Z" fill="#F2F2F2"/>
<path d="M149.81 95.4798C149.87 95.4204 149.916 95.3486 149.946 95.2695C149.975 95.1903 149.987 95.1057 149.98 95.0216C149.973 94.9375 149.947 94.8559 149.905 94.7826C149.863 94.7094 149.806 94.6462 149.737 94.5975L149.445 92.6754L148.245 93.0523L148.902 94.7672C148.828 94.8885 148.801 95.0327 148.826 95.1726C148.851 95.3124 148.927 95.4382 149.039 95.526C149.151 95.6138 149.291 95.6577 149.433 95.6491C149.575 95.6406 149.709 95.5803 149.81 95.4798Z" fill="#FFB8B8"/>
<path d="M148.574 94.5755L147.833 91.1253C147.761 90.7948 147.775 90.4514 147.874 90.1279C147.973 89.8044 148.154 89.5116 148.399 89.2777C149.346 88.3665 150.564 87.2179 150.985 86.9207C151.379 86.6399 151.857 86.4992 152.342 86.521L152.352 86.5222L152.988 87.1227L151.601 89.4017L149.496 90.7184L149.73 94.1001L148.574 94.5755Z" fill="#8BC83F"/>
<path d="M151.166 89.8869H148.06C147.925 89.8869 147.816 89.9958 147.816 90.1301C147.816 90.2644 147.925 90.3732 148.06 90.3732H151.166C151.301 90.3732 151.41 90.2644 151.41 90.1301C151.41 89.9958 151.301 89.8869 151.166 89.8869Z" fill="#CCCCCC"/>
<path d="M151.166 95.1756H148.06C147.925 95.1756 147.816 95.2845 147.816 95.4188C147.816 95.5531 147.925 95.6619 148.06 95.6619H151.166C151.301 95.6619 151.41 95.5531 151.41 95.4188C151.41 95.2845 151.301 95.1756 151.166 95.1756Z" fill="#CCCCCC"/>
<path d="M149.643 108.428C149.613 108.428 149.584 108.416 149.561 108.396C149.539 108.375 149.525 108.347 149.522 108.317L147.969 90.1408C147.968 90.1249 147.969 90.1088 147.974 90.0936C147.979 90.0783 147.987 90.0641 147.997 90.0518C148.007 90.0396 148.02 90.0294 148.034 90.022C148.048 90.0146 148.064 90.0101 148.08 90.0086C148.096 90.0072 148.112 90.009 148.127 90.0138C148.142 90.0186 148.156 90.0263 148.169 90.0366C148.181 90.0469 148.191 90.0595 148.198 90.0737C148.206 90.0879 148.21 90.1034 148.212 90.1193L149.642 106.913L151.031 90.1196C151.032 90.1037 151.037 90.0881 151.044 90.0739C151.051 90.0597 151.061 90.047 151.074 90.0367C151.086 90.0264 151.1 90.0185 151.115 90.0137C151.131 90.0088 151.147 90.0071 151.163 90.0084C151.179 90.0098 151.194 90.0143 151.208 90.0217C151.223 90.0291 151.235 90.0392 151.246 90.0515C151.256 90.0638 151.264 90.0779 151.268 90.0932C151.273 90.1085 151.275 90.1246 151.274 90.1405L149.765 108.317C149.762 108.347 149.748 108.375 149.726 108.396C149.703 108.416 149.674 108.428 149.643 108.428L149.643 108.428Z" fill="#CCCCCC"/>
<path d="M153.129 85.7935C154.012 85.7935 154.728 85.0794 154.728 84.1984C154.728 83.3175 154.012 82.6034 153.129 82.6034C152.247 82.6034 151.531 83.3175 151.531 84.1984C151.531 85.0794 152.247 85.7935 153.129 85.7935Z" fill="#FFB8B8"/>
<path d="M148.366 107.699L147.606 107.457L148.179 104.416L149.301 104.773L148.366 107.699Z" fill="#FFB8B8"/>
<path d="M148.324 108.372L145.877 107.593L145.898 107.53C145.975 107.287 146.146 107.085 146.373 106.968C146.6 106.851 146.864 106.829 147.107 106.906L148.637 107.393L148.324 108.372Z" fill="#2F2E41"/>
<path d="M153.897 107.683H153.099L152.719 104.612H153.897V107.683Z" fill="#FFB8B8"/>
<path d="M151.591 108.392H154.037V107.486H152.493C152.253 107.486 152.024 107.581 151.855 107.75C151.686 107.919 151.591 108.148 151.591 108.386V108.392Z" fill="#2F2E41"/>
<path d="M153.873 106.686L153.604 106.646C153.266 106.626 152.931 106.564 152.609 106.461C152.542 106.432 152.538 105.993 152.577 103.527C152.607 101.717 152.643 99.4649 152.572 98.2556C152.57 98.2079 152.551 98.1625 152.519 98.1268C152.487 98.0912 152.444 98.0673 152.397 98.059C152.35 98.0507 152.301 98.0585 152.259 98.0811C152.217 98.1038 152.183 98.1399 152.164 98.1838C151.557 99.5842 150.537 102.718 149.863 104.792C149.628 105.513 149.443 106.083 149.325 106.425C149.303 106.489 149.257 106.543 149.196 106.576C149.136 106.608 149.066 106.617 148.999 106.601C148.444 106.462 148.481 106.403 147.691 106.199C147.622 106.182 147.563 106.139 147.526 106.079C147.489 106.019 147.476 105.947 147.491 105.878C147.634 105.205 150.251 94.2916 150.451 93.2542C150.458 93.2187 150.472 93.1849 150.492 93.1547C150.512 93.1245 150.537 93.0986 150.567 93.0784C150.597 93.0582 150.631 93.0442 150.667 93.0371C150.702 93.03 150.739 93.03 150.774 93.0371C151.363 93.1556 151.722 93.2813 152.304 93.4028C152.933 93.534 153.582 93.6697 154.216 93.7963C154.279 93.8089 154.336 93.8435 154.375 93.8938C154.552 94.0823 154.769 94.2281 155.011 94.3199C155.177 94.3991 154.801 94.392 154.945 94.5062C155.531 94.9686 154.689 104.359 154.18 106.48C154.164 106.547 154.124 106.605 154.067 106.643C154.01 106.681 153.941 106.697 153.873 106.687V106.686Z" fill="#2F2E41"/>
<path d="M153.811 85.5941C153.717 85.199 154.189 84.3488 154.096 83.9536C154.033 83.686 153.402 83.8679 153.255 83.6355C153.187 83.5157 153.09 83.4145 152.973 83.3406C152.857 83.2667 152.724 83.2224 152.586 83.2117C152.269 83.2082 151.958 83.4426 151.658 83.3413C151.587 83.3061 151.524 83.2573 151.472 83.1975C151.42 83.1378 151.38 83.0684 151.356 82.9933C151.331 82.9182 151.321 82.8389 151.328 82.7601C151.334 82.6813 151.356 82.6045 151.392 82.5342C151.552 82.2548 151.801 82.0367 152.1 81.9143C152.57 81.6275 153.133 81.5331 153.672 81.6506C153.98 81.7698 154.262 81.9469 154.503 82.1722C154.745 82.351 154.958 82.5662 155.133 82.8102C155.282 83.0646 155.363 83.353 155.368 83.6477C155.372 83.9423 155.301 84.2332 155.16 84.4922C154.869 85.0092 154.405 85.4077 153.849 85.6179" fill="#2F2E41"/>
<path d="M149.886 94.7896C150.059 94.502 150.321 93.1545 150.644 90.8928C150.864 89.3488 151.055 87.78 151.15 86.9786C151.158 86.9138 151.181 86.8518 151.219 86.7987C151.257 86.7455 151.308 86.7028 151.367 86.6746C151.429 86.6449 151.49 86.6167 151.551 86.5902C152.283 86.2559 153.095 86.1377 153.892 86.2494C154.689 86.3612 155.438 86.6983 156.049 87.2209L156.056 87.2277L156.058 87.2373C156.061 87.2551 156.391 89.0304 155.715 90.2299C155.048 91.4134 155.04 94.5476 155.04 94.5791V94.6194L155.002 94.6084C153.964 94.3125 149.957 94.8301 149.916 94.8354L149.854 94.8435L149.886 94.7896Z" fill="#8BC83F"/>
<path d="M155.917 90.6772H152.811C152.676 90.6772 152.567 90.7861 152.567 90.9203C152.567 91.0546 152.676 91.1635 152.811 91.1635H155.917C156.052 91.1635 156.161 91.0546 156.161 90.9203C156.161 90.7861 156.052 90.6772 155.917 90.6772Z" fill="#CCCCCC"/>
<path d="M155.917 95.9659H152.811C152.676 95.9659 152.567 96.0748 152.567 96.209C152.567 96.3433 152.676 96.4522 152.811 96.4522H155.917C156.052 96.4522 156.161 96.3433 156.161 96.209C156.161 96.0748 156.052 95.9659 155.917 95.9659Z" fill="#CCCCCC"/>
<path d="M154.394 108.489C154.364 108.489 154.334 108.477 154.312 108.457C154.29 108.436 154.276 108.408 154.273 108.378L152.72 90.9311C152.717 90.899 152.727 90.8671 152.748 90.8423C152.769 90.8176 152.798 90.8021 152.831 90.7993C152.863 90.7964 152.895 90.8064 152.92 90.8271C152.944 90.8478 152.96 90.8775 152.963 90.9096L154.393 106.973L155.782 90.9099C155.783 90.8939 155.788 90.8784 155.795 90.8642C155.802 90.8499 155.812 90.8373 155.825 90.827C155.837 90.8166 155.851 90.8088 155.866 90.804C155.882 90.7991 155.898 90.7974 155.914 90.7987C155.93 90.8001 155.945 90.8046 155.959 90.812C155.974 90.8194 155.986 90.8295 155.997 90.8418C156.007 90.8541 156.015 90.8682 156.019 90.8835C156.024 90.8988 156.026 90.9149 156.024 90.9308L154.516 108.377C154.513 108.408 154.499 108.436 154.477 108.457C154.454 108.477 154.425 108.489 154.394 108.489L154.394 108.489Z" fill="#CCCCCC"/>
<path d="M153.391 96.0429C153.373 95.9605 153.373 95.8751 153.392 95.7927C153.41 95.7103 153.447 95.633 153.498 95.5662C153.55 95.4994 153.616 95.4447 153.691 95.4059C153.766 95.3672 153.849 95.3454 153.933 95.342L155.225 93.8868L156.027 94.854L154.542 95.9371C154.538 96.0791 154.482 96.2149 154.385 96.3186C154.287 96.4224 154.155 96.4869 154.013 96.4999C153.872 96.513 153.73 96.4736 153.615 96.3894C153.501 96.3052 153.421 96.1819 153.391 96.0429H153.391Z" fill="#FFB8B8"/>
<path d="M154.143 95.0301L156.181 92.3182L155.13 90.0709L155.207 87.4055L156.068 87.2466L156.077 87.2512C156.496 87.4955 156.82 87.8727 156.999 88.3226C157.19 88.8001 157.587 90.4248 157.886 91.7036C157.965 92.0328 157.957 92.3764 157.864 92.7017C157.771 93.0269 157.596 93.3229 157.355 93.5612L154.855 96.0562L154.143 95.0301Z" fill="#8BC83F"/>
<path d="M145.601 107.734L148.389 108.404C148.443 108.419 148.5 108.414 148.551 108.39C148.602 108.366 148.642 108.326 148.666 108.275L151.061 101.92C151.072 101.896 151.077 101.869 151.077 101.843C151.077 101.816 151.072 101.79 151.061 101.765C151.049 101.738 151.032 101.713 151.01 101.693C150.988 101.672 150.962 101.656 150.934 101.646L148.838 100.847C148.805 100.835 148.769 100.829 148.734 100.831C148.698 100.833 148.664 100.842 148.632 100.859C148.605 100.872 148.581 100.891 148.561 100.915C148.542 100.938 148.528 100.966 148.52 100.995L148.52 100.996L147.04 106.597L147.018 106.598C146.559 106.625 146.123 106.807 145.78 107.113C145.709 107.199 145.657 107.298 145.626 107.405C145.595 107.512 145.586 107.624 145.601 107.734Z" fill="#CCCCCC"/>
<path d="M147.62 104.172L147.607 104.293L150.149 104.562L150.162 104.441L147.62 104.172Z" fill="#B3B3B3"/>
<path d="M147.398 105.174L147.348 105.284L149.394 106.203L149.444 106.092L147.398 105.174Z" fill="#B3B3B3"/>
<path d="M150.429 103.589L148.018 102.792L148.069 102.681L150.479 103.478L150.429 103.589Z" fill="#B3B3B3"/>
<path d="M150.673 103.042L148.262 101.88L148.312 101.769L150.723 102.931L150.673 103.042Z" fill="#B3B3B3"/>
<path d="M147.186 106.126L147.107 106.218L148.845 107.7L148.924 107.608L147.186 106.126Z" fill="#B3B3B3"/>
<path d="M146.692 106.617L146.581 106.667L147.279 108.203L147.39 108.153L146.692 106.617Z" fill="#B3B3B3"/>
<path d="M214.64 95.9888C214.536 95.9649 214.44 95.9186 214.356 95.8533C214.273 95.788 214.205 95.7052 214.157 95.6108C214.109 95.5163 214.082 95.4126 214.079 95.3068C214.075 95.201 214.095 95.0957 214.137 94.9984L211.463 88.9682L212.993 88.5836L215.14 94.6321C215.299 94.713 215.423 94.8493 215.488 95.0152C215.554 95.1811 215.556 95.3651 215.494 95.5323C215.432 95.6996 215.311 95.8384 215.154 95.9225C214.996 96.0067 214.813 96.0303 214.64 95.9888Z" fill="#A0616A"/>
<path d="M211.959 90.8577C211.916 90.8386 211.878 90.8106 211.848 90.7755C211.817 90.7405 211.794 90.6992 211.78 90.6545L211.313 89.0933C211.211 88.8771 211.199 88.6291 211.28 88.4041C211.361 88.179 211.528 87.9953 211.745 87.8932C211.961 87.7912 212.21 87.7793 212.435 87.8601C212.661 87.9409 212.845 88.1078 212.947 88.3241L213.851 89.6871C213.877 89.726 213.894 89.77 213.901 89.8161C213.909 89.8621 213.906 89.9092 213.893 89.9541C213.881 89.9991 213.858 90.0407 213.828 90.0763C213.798 90.1119 213.76 90.1405 213.718 90.1603L212.23 90.8554C212.188 90.8752 212.142 90.8857 212.095 90.8861C212.048 90.8865 212.002 90.8768 211.959 90.8577Z" fill="#6C63FF"/>
<path d="M217.403 90.0799L215.763 91.2391C215.742 91.2543 215.716 91.2625 215.69 91.2625C215.665 91.2625 215.639 91.2543 215.618 91.2391L215.175 90.9068C215.16 90.8961 215.148 90.8822 215.139 90.8661C215.131 90.85 215.126 90.8322 215.125 90.814C215.124 90.7958 215.128 90.7777 215.135 90.7609C215.142 90.7442 215.153 90.7293 215.167 90.7174L216.429 89.5939C216.446 89.5794 216.466 89.5696 216.488 89.5654C216.509 89.5613 216.532 89.5629 216.552 89.5701L217.374 89.8635C217.395 89.8712 217.414 89.8846 217.428 89.9021C217.442 89.9196 217.451 89.9406 217.454 89.9629C217.457 89.9851 217.454 90.0078 217.445 90.0284C217.436 90.049 217.421 90.0668 217.403 90.0799Z" fill="#3F3D56"/>
<path d="M217.27 89.9701C217.274 89.9592 217.273 89.9472 217.268 89.9367C217.264 89.9261 217.255 89.9179 217.244 89.9137L216.504 89.6495C216.497 89.6469 216.489 89.6462 216.481 89.6477C216.474 89.6491 216.466 89.6525 216.46 89.6576L215.322 90.6709L215.316 90.6777C215.312 90.6822 215.31 90.6873 215.309 90.6927C215.307 90.6981 215.307 90.7038 215.308 90.7093C215.309 90.7148 215.311 90.72 215.314 90.7248C215.317 90.7295 215.321 90.7336 215.325 90.7368L215.724 91.0356C215.732 91.041 215.741 91.0439 215.75 91.0438C215.759 91.0437 215.768 91.0407 215.776 91.0351L217.254 89.9905C217.261 89.9854 217.267 89.9783 217.27 89.9701Z" fill="white"/>
<path d="M211.424 107.361H212.252L212.646 104.174H211.424V107.361Z" fill="#A0616A"/>
<path d="M211.213 107.091L212.844 107.091H212.844C212.98 107.091 213.115 107.118 213.241 107.17C213.367 107.222 213.482 107.299 213.579 107.395C213.675 107.491 213.752 107.606 213.804 107.731C213.856 107.857 213.883 107.992 213.883 108.128V108.162L211.213 108.162L211.213 107.091Z" fill="#2F2E41"/>
<path d="M208.656 107.361H209.484L209.877 104.174H208.656V107.361Z" fill="#A0616A"/>
<path d="M208.444 107.091L210.075 107.091H210.075C210.211 107.091 210.347 107.118 210.473 107.17C210.599 107.222 210.713 107.299 210.81 107.395C210.906 107.491 210.983 107.606 211.035 107.731C211.087 107.857 211.114 107.992 211.114 108.128V108.162L208.445 108.162L208.444 107.091Z" fill="#2F2E41"/>
<path d="M208.48 106.387C208.423 106.322 208.392 106.239 208.39 106.153C208.193 104.127 208.73 93.4745 209.971 92.5648L209.979 92.5574L213.61 91.9316L213.678 91.999C213.683 92.0929 214.343 101.43 212.52 106.196C212.498 106.253 212.459 106.301 212.408 106.336C212.358 106.37 212.298 106.389 212.237 106.389H211.512C211.47 106.389 211.428 106.38 211.39 106.363C211.352 106.346 211.317 106.322 211.289 106.291C211.26 106.26 211.238 106.224 211.225 106.185C211.211 106.145 211.206 106.103 211.209 106.061L211.796 97.1385C211.798 97.1129 211.79 97.0875 211.774 97.0675C211.758 97.0474 211.735 97.0342 211.71 97.0304C211.684 97.0267 211.658 97.0327 211.637 97.0473C211.616 97.0619 211.601 97.0839 211.596 97.109L209.943 106.165C209.929 106.229 209.894 106.287 209.845 106.33C209.795 106.372 209.733 106.398 209.668 106.403L208.716 106.474C208.709 106.474 208.701 106.474 208.694 106.474C208.614 106.474 208.537 106.443 208.48 106.387Z" fill="#2F2E41"/>
<path d="M213.259 86.4693C214.175 86.4693 214.917 85.7282 214.917 84.8139C214.917 83.8997 214.175 83.1586 213.259 83.1586C212.343 83.1586 211.6 83.8997 211.6 84.8139C211.6 85.7282 212.343 86.4693 213.259 86.4693Z" fill="#A0616A"/>
<path d="M209.264 94.0145C209.194 93.9434 209.153 93.8482 209.151 93.7484L209.828 90.5836C209.288 88.2921 210.007 87.8625 210.819 87.4282L210.814 87.4255L211.153 86.5099C211.164 86.4691 211.183 86.4313 211.211 86.399C211.238 86.3667 211.272 86.3408 211.31 86.3231C211.348 86.3054 211.39 86.2963 211.432 86.2966C211.474 86.2969 211.516 86.3064 211.554 86.3246L213.283 87.2413C213.361 87.285 213.418 87.3574 213.443 87.4428C213.472 87.5336 213.47 87.6316 213.438 87.7211L213.31 88.0659C213.64 88.506 214.15 90.2466 213.61 90.9206L214.018 93.1667C214.027 93.2493 214.006 93.3324 213.96 93.4015C213.914 93.4706 213.845 93.5213 213.765 93.5447L209.505 94.0902C209.488 94.0936 209.472 94.0953 209.455 94.0953C209.383 94.0943 209.314 94.0653 209.264 94.0145Z" fill="#1F4C6B"/>
<path d="M215.465 90.385C215.438 90.4105 215.413 90.4382 215.39 90.4677L212.049 90.2373L211.69 89.5083L210.517 89.9044L211.026 91.2564C211.067 91.3657 211.143 91.4586 211.241 91.5214C211.34 91.5841 211.456 91.6133 211.573 91.6045L215.372 91.3169C215.456 91.4335 215.574 91.5218 215.709 91.57C215.845 91.6182 215.992 91.6241 216.131 91.5868C216.27 91.5496 216.395 91.4709 216.488 91.3614C216.581 91.2519 216.638 91.1166 216.653 90.9737C216.667 90.8307 216.637 90.6868 216.568 90.5611C216.498 90.4354 216.392 90.3338 216.263 90.2699C216.134 90.206 215.988 90.1828 215.846 90.2033C215.703 90.2239 215.571 90.2873 215.465 90.385V90.385Z" fill="#A0616A"/>
<path d="M211.924 90.2489L210.468 90.7327C210.426 90.7465 210.382 90.7512 210.339 90.7465C210.296 90.7418 210.254 90.7278 210.216 90.7055C210.179 90.6832 210.146 90.6531 210.122 90.6172C210.097 90.5813 210.08 90.5405 210.072 90.4976L209.807 88.9936C209.738 88.7816 209.755 88.5508 209.856 88.3517C209.957 88.1527 210.133 88.0017 210.345 87.9318C210.557 87.862 210.789 87.879 210.988 87.9792C211.188 88.0794 211.34 88.2545 211.41 88.4662L212.099 89.8242C212.119 89.8631 212.13 89.9058 212.132 89.9493C212.133 89.9929 212.126 90.0363 212.109 90.0766C212.092 90.1169 212.067 90.1531 212.035 90.1829C212.003 90.2126 211.965 90.2351 211.924 90.2489Z" fill="#1F4C6B"/>
<path d="M212.327 83.5068C213.073 83.5068 213.678 82.9033 213.678 82.1588C213.678 81.4144 213.073 80.8109 212.327 80.8109C211.581 80.8109 210.976 81.4144 210.976 82.1588C210.976 82.9033 211.581 83.5068 212.327 83.5068Z" fill="#2F2E41"/>
<path d="M214.829 85.0186C214.96 85.0447 215.095 85.0334 215.22 84.9859C215.283 84.9499 215.337 84.8995 215.378 84.8388C215.418 84.778 215.444 84.7087 215.452 84.6363C215.704 82.9676 214.282 83.1048 214.114 83.0326C214.008 82.9705 213.908 82.8979 213.816 82.816C213.58 82.6849 213.31 82.6256 213.039 82.6455C212.72 82.616 212.398 82.6553 212.096 82.7607C211.832 82.884 211.613 83.0856 211.468 83.3379C211.325 83.5891 211.22 83.8601 211.157 84.1421C211.057 84.4613 211.039 84.8002 211.104 85.1281C211.173 85.3728 211.317 85.5899 211.516 85.7489C211.715 85.9079 211.959 86.001 212.213 86.0149C212.172 85.8186 212.197 85.6144 212.285 85.4337C212.372 85.2531 212.516 85.1062 212.695 85.0157C212.98 84.8758 213.305 84.8372 213.615 84.9065C213.816 84.9471 214.02 84.9725 214.225 84.9823C214.426 84.9898 214.667 85.0015 214.829 85.0186Z" fill="#2F2E41"/>
<path d="M344.637 107.69C344.638 105.922 345.343 104.226 346.596 102.976C347.85 101.726 349.549 101.024 351.321 101.024C353.093 101.024 354.792 101.726 356.045 102.976C357.299 104.226 358.003 105.922 358.005 107.69" fill="#F2F2F2"/>
<path d="M351.321 107.69C351.273 107.69 351.227 107.671 351.193 107.637C351.159 107.603 351.14 107.558 351.14 107.51V103.994C351.14 103.946 351.159 103.9 351.193 103.867C351.227 103.833 351.273 103.814 351.321 103.814C351.369 103.814 351.415 103.833 351.449 103.867C351.482 103.9 351.501 103.946 351.501 103.994V107.51C351.501 107.558 351.482 107.603 351.449 107.637C351.415 107.671 351.369 107.69 351.321 107.69Z" fill="#CCCCCC"/>
<path d="M351.321 106.482C351.278 106.482 351.236 106.467 351.203 106.438L349.035 104.582C349.017 104.566 349.002 104.547 348.991 104.526C348.98 104.505 348.974 104.482 348.972 104.458C348.97 104.434 348.973 104.411 348.98 104.388C348.987 104.365 348.999 104.344 349.015 104.326C349.03 104.308 349.049 104.293 349.071 104.283C349.092 104.272 349.115 104.266 349.139 104.264C349.163 104.262 349.187 104.265 349.209 104.273C349.232 104.28 349.253 104.292 349.271 104.308L351.438 106.165C351.466 106.189 351.486 106.221 351.496 106.257C351.505 106.292 351.503 106.33 351.49 106.364C351.477 106.399 351.454 106.429 351.424 106.45C351.394 106.471 351.358 106.482 351.321 106.482L351.321 106.482Z" fill="#CCCCCC"/>
<path d="M365.231 107.69C365.232 105.922 365.937 104.226 367.19 102.976C368.444 101.726 370.143 101.024 371.915 101.024C373.687 101.024 375.386 101.726 376.639 102.976C377.893 104.226 378.597 105.922 378.599 107.69" fill="#F2F2F2"/>
<path d="M371.915 107.69C371.867 107.69 371.821 107.671 371.787 107.637C371.753 107.603 371.734 107.558 371.734 107.51V103.994C371.734 103.946 371.753 103.9 371.787 103.867C371.821 103.833 371.867 103.814 371.915 103.814C371.963 103.814 372.009 103.833 372.042 103.867C372.076 103.9 372.095 103.946 372.095 103.994V107.51C372.095 107.558 372.076 107.603 372.042 107.637C372.009 107.671 371.963 107.69 371.915 107.69Z" fill="#CCCCCC"/>
<path d="M371.915 106.482C371.871 106.482 371.83 106.467 371.797 106.438L369.629 104.582C369.611 104.566 369.596 104.547 369.585 104.526C369.574 104.505 369.567 104.482 369.566 104.458C369.564 104.434 369.566 104.411 369.574 104.388C369.581 104.365 369.593 104.344 369.609 104.326C369.624 104.308 369.643 104.293 369.664 104.283C369.686 104.272 369.709 104.265 369.733 104.264C369.757 104.262 369.78 104.265 369.803 104.273C369.826 104.28 369.847 104.292 369.865 104.308L372.032 106.165C372.06 106.189 372.08 106.221 372.09 106.257C372.099 106.292 372.097 106.33 372.084 106.364C372.071 106.399 372.048 106.429 372.018 106.45C371.988 106.471 371.952 106.482 371.915 106.482V106.482Z" fill="#CCCCCC"/>
</g>
<defs>
<clipPath id="clip0_2_1909">
<rect width="408" height="175" fill="white" transform="translate(-11 -46)"/>
</clipPath>
</defs>
</svg>
